<svg width="360" height="398" viewBox="0 0 360 398" fill="none" xmlns="http://www.w3.org/2000/svg">
<g opacity="0.12">
<path d="M126.549 88.5151L126.195 88.8682C124.246 86.9151 121.56 85.7856 118.744 85.7856H36.4769C27.1245 85.7856 22.4398 97.1178 29.0273 103.765L233.9 309.131C235.848 311.084 238.534 312.214 241.35 312.214H323.663C333.014 312.214 337.699 300.883 331.113 294.236L126.549 88.5151ZM126.549 88.5151L126.195 88.8682L331.112 294.235L126.549 88.5151ZM97.7924 230.967C95.795 229.01 93.1523 227.883 90.3403 227.883H8.02793C-1.32393 227.883 -6.0086 239.214 0.57721 245.861L97.7924 230.967ZM97.7924 230.967C97.7933 230.968 97.7941 230.969 97.7949 230.97L245.988 379.521C252.576 386.168 247.891 397.5 238.539 397.5H156.227C153.41 397.5 150.724 396.371 148.776 394.417L0.578366 245.862L97.7924 230.967ZM211.27 3.58261L359.422 152.092L359.423 152.093C366.009 158.74 361.324 170.071 351.972 170.071H269.66C266.843 170.071 264.157 168.942 262.209 166.989L114.057 18.4791C114.057 18.4788 114.056 18.4784 114.056 18.4781C107.47 11.8311 112.155 0.5 121.507 0.5H203.819C206.635 0.5 209.321 1.62952 211.27 3.58261Z" fill="white" fill-opacity="0.08"/>
<path d="M126.549 88.5151L126.195 88.8682C124.246 86.9151 121.56 85.7856 118.744 85.7856H36.4769C27.1245 85.7856 22.4398 97.1178 29.0273 103.765L233.9 309.131C235.848 311.084 238.534 312.214 241.35 312.214H323.663C333.014 312.214 337.699 300.883 331.113 294.236L126.549 88.5151ZM126.549 88.5151L126.195 88.8682L331.112 294.235L126.549 88.5151ZM97.7924 230.967C95.795 229.01 93.1523 227.883 90.3403 227.883H8.02793C-1.32393 227.883 -6.0086 239.214 0.57721 245.861L97.7924 230.967ZM97.7924 230.967C97.7933 230.968 97.7941 230.969 97.7949 230.97L245.988 379.521C252.576 386.168 247.891 397.5 238.539 397.5H156.227C153.41 397.5 150.724 396.371 148.776 394.417L0.578366 245.862L97.7924 230.967ZM211.27 3.58261L359.422 152.092L359.423 152.093C366.009 158.74 361.324 170.071 351.972 170.071H269.66C266.843 170.071 264.157 168.942 262.209 166.989L114.057 18.4791C114.057 18.4788 114.056 18.4784 114.056 18.4781C107.47 11.8311 112.155 0.5 121.507 0.5H203.819C206.635 0.5 209.321 1.62952 211.27 3.58261Z" stroke="url(#paint0_linear_1425_92599)"/>
<path d="M126.549 88.5151L126.195 88.8682C124.246 86.9151 121.56 85.7856 118.744 85.7856H36.4769C27.1245 85.7856 22.4398 97.1178 29.0273 103.765L233.9 309.131C235.848 311.084 238.534 312.214 241.35 312.214H323.663C333.014 312.214 337.699 300.883 331.113 294.236L126.549 88.5151ZM126.549 88.5151L126.195 88.8682L331.112 294.235L126.549 88.5151ZM97.7924 230.967C95.795 229.01 93.1523 227.883 90.3403 227.883H8.02793C-1.32393 227.883 -6.0086 239.214 0.57721 245.861L97.7924 230.967ZM97.7924 230.967C97.7933 230.968 97.7941 230.969 97.7949 230.97L245.988 379.521C252.576 386.168 247.891 397.5 238.539 397.5H156.227C153.41 397.5 150.724 396.371 148.776 394.417L0.578366 245.862L97.7924 230.967ZM211.27 3.58261L359.422 152.092L359.423 152.093C366.009 158.74 361.324 170.071 351.972 170.071H269.66C266.843 170.071 264.157 168.942 262.209 166.989L114.057 18.4791C114.057 18.4788 114.056 18.4784 114.056 18.4781C107.47 11.8311 112.155 0.5 121.507 0.5H203.819C206.635 0.5 209.321 1.62952 211.27 3.58261Z" stroke="url(#paint1_linear_1425_92599)" stroke-opacity="0.2"/>
</g>
<defs>
<linearGradient id="paint0_linear_1425_92599" x1="180" y1="0" x2="180" y2="232.807" gradientUnits="userSpaceOnUse">
<stop stop-color="white"/>
<stop offset="1" stop-color="white" stop-opacity="0"/>
</linearGradient>
<linearGradient id="paint1_linear_1425_92599" x1="180" y1="0" x2="180" y2="398" gradientUnits="userSpaceOnUse">
<stop stop-opacity="0"/>
<stop offset="1"/>
</linearGradient>
</defs>
</svg>
