<svg width="16" height="14" viewBox="0 0 16 14" fill="none" xmlns="http://www.w3.org/2000/svg">
<path d="M6.03996 0.286648C4.77996 0.279982 3.55329 1.49332 4.11329 2.99998H1.99996C1.64634 2.99998 1.3072 3.14046 1.05715 3.39051C0.807102 3.64055 0.666626 3.97969 0.666626 4.33332V5.66665C0.666626 5.84346 0.736864 6.01303 0.861888 6.13805C0.986912 6.26308 1.15648 6.33331 1.33329 6.33331H7.33329V4.33332H8.66663V6.33331H14.6666C14.8434 6.33331 15.013 6.26308 15.138 6.13805C15.2631 6.01303 15.3333 5.84346 15.3333 5.66665V4.33332C15.3333 3.97969 15.1928 3.64055 14.9428 3.39051C14.6927 3.14046 14.3536 2.99998 14 2.99998H11.8866C12.6666 0.819982 9.73329 -0.720018 8.37996 1.15998L7.99996 1.66665L7.61996 1.14665C7.19996 0.553315 6.61996 0.293315 6.03996 0.286648ZM5.99996 1.66665C6.59329 1.66665 6.89329 2.38665 6.47329 2.80665C6.05329 3.22665 5.33329 2.92665 5.33329 2.33332C5.33329 2.1565 5.40353 1.98694 5.52855 1.86191C5.65358 1.73689 5.82315 1.66665 5.99996 1.66665ZM9.99996 1.66665C10.5933 1.66665 10.8933 2.38665 10.4733 2.80665C10.0533 3.22665 9.33329 2.92665 9.33329 2.33332C9.33329 2.1565 9.40353 1.98694 9.52855 1.86191C9.65358 1.73689 9.82315 1.66665 9.99996 1.66665ZM1.33329 6.99998V12.3333C1.33329 12.6869 1.47377 13.0261 1.72382 13.2761C1.97387 13.5262 2.313 13.6666 2.66663 13.6666H13.3333C13.6869 13.6666 14.0261 13.5262 14.2761 13.2761C14.5262 13.0261 14.6666 12.6869 14.6666 12.3333V6.99998H8.66663V12.3333H7.33329V6.99998H1.33329Z" fill="white"/>
</svg>
