<svg width="32" height="32" viewBox="0 0 32 32" fill="none" xmlns="http://www.w3.org/2000/svg">
<path d="M4 11.5414V21.315C4 22.6723 4.72377 23.9256 5.89874 24.6042L14.3629 29.491C15.5379 30.1697 16.9854 30.1697 18.1613 29.491L26.6255 24.6042C27.8005 23.9256 28.5243 22.6723 28.5243 21.315V11.5414C28.5243 10.1841 27.8005 8.93088 26.6255 8.25223L18.1613 3.36543C16.9864 2.68678 15.5388 2.68678 14.3629 3.36543L5.89874 8.25223C4.72377 8.93088 4 10.1841 4 11.5414Z" fill="#BF833D"/>
<path d="M4 10.7126V20.4862C4 21.8435 4.72377 23.0967 5.89874 23.7753L14.3629 28.6621C15.5379 29.3408 16.9854 29.3408 18.1613 28.6621L26.6255 23.7753C27.8005 23.0967 28.5243 21.8435 28.5243 20.4862V10.7126C28.5243 9.35526 27.8005 8.10202 26.6255 7.42338L18.1613 2.53657C16.9864 1.85793 15.5388 1.85793 14.3629 2.53657L5.89874 7.42338C4.72377 8.10202 4 9.35526 4 10.7126Z" fill="#FBC34E"/>
<path d="M7.09839 11.3581V19.8361C7.09839 20.5295 7.4658 21.1704 8.06433 21.5203L15.2771 25.7376C15.8858 26.0931 16.6381 26.0931 17.2468 25.7376L24.4596 21.5203C25.0581 21.1704 25.4255 20.5295 25.4255 19.8361V11.3581C25.4255 10.6647 25.0581 10.0238 24.4596 9.67389L17.2468 5.45652C16.6381 5.10108 15.8858 5.10108 15.2771 5.45652L8.06433 9.67389C7.4658 10.0238 7.09839 10.6647 7.09839 11.3581Z" fill="#E5A533"/>
<path d="M12.5185 12.1103C12.9872 12.1103 13.4559 12.114 13.9255 12.1085C14.0996 12.1066 14.2358 12.16 14.3611 12.2853C16.8243 14.7485 19.2893 17.2089 21.7562 19.6675C21.9008 19.8112 21.9698 19.9668 21.8888 20.1601C21.8078 20.3535 21.6448 20.4106 21.4422 20.4097C20.4891 20.406 19.5361 20.4051 18.583 20.4097C18.4062 20.4097 18.2727 20.3498 18.1493 20.2274C15.6926 17.7725 13.234 15.3194 10.7782 12.8635C10.7119 12.7972 10.6474 12.7144 10.6207 12.6269C10.5378 12.3534 10.733 12.1131 11.0351 12.1103C11.5295 12.1066 12.024 12.1094 12.5185 12.1094V12.1103Z" fill="#DECEA4"/>
<path d="M16.9034 23.5119C16.419 23.5119 15.9347 23.5091 15.4503 23.5137C15.2919 23.5156 15.1676 23.4658 15.0544 23.3535C13.279 21.5782 11.5009 19.8056 9.72649 18.0293C9.65834 17.9612 9.59481 17.8672 9.57455 17.7752C9.51654 17.5127 9.69794 17.2991 9.96682 17.2982C10.9659 17.2963 11.965 17.2936 12.9641 17.3037C13.0737 17.3046 13.209 17.3617 13.2864 17.4381C15.0829 19.2209 16.873 21.0109 18.6649 22.7982C18.8021 22.9345 18.8491 23.0929 18.7736 23.2706C18.6999 23.4437 18.559 23.5146 18.3702 23.5137C17.8813 23.51 17.3914 23.5128 16.9025 23.5128L16.9034 23.5119Z" fill="#DECEA4"/>
<path d="M21.0469 15.2271C20.5681 15.2271 20.0883 15.2243 19.6095 15.2289C19.4456 15.2308 19.3195 15.1746 19.2034 15.0586C17.4327 13.2869 15.6592 11.5162 13.8848 9.74821C13.7411 9.60548 13.6665 9.45262 13.7457 9.25649C13.8258 9.06035 13.9888 8.99958 14.1895 9.0005C15.1481 9.00234 16.1058 9.00234 17.0644 9.0005C17.2273 9.0005 17.3581 9.05483 17.4732 9.17085C19.2449 10.9425 21.0174 12.7123 22.7928 14.4803C22.9364 14.624 23.0046 14.7833 22.9291 14.9757C22.8517 15.1719 22.6869 15.2317 22.4852 15.2299C22.0064 15.2253 21.5267 15.2289 21.0478 15.228L21.0469 15.2271Z" fill="#DECEA4"/>
<path d="M13.7135 9.42695V8.61938H17.2881L22.9595 14.171V14.8543L20.6298 13.5237L13.7135 9.42695Z" fill="#DECEA4"/>
<path d="M10.6217 12.4969V11.7363H14.2755L21.9239 19.3442V20.16L12.6153 13.1231L10.6217 12.4969Z" fill="#DECEA4"/>
<path d="M9.56445 17.6077V16.9585H13.3407L18.8104 22.454V23.2707L11.5276 17.9125L9.56445 17.6077Z" fill="#DECEA4"/>
<path d="M12.5185 11.3552C12.9872 11.3552 13.4559 11.3589 13.9255 11.3533C14.0996 11.3515 14.2358 11.4049 14.3611 11.5301C16.8243 13.9933 19.2893 16.4538 21.7562 18.9124C21.9008 19.056 21.9698 19.2116 21.8888 19.405C21.8078 19.5984 21.6448 19.6555 21.4422 19.6546C20.4891 19.6509 19.5361 19.65 18.583 19.6546C18.4062 19.6546 18.2727 19.5947 18.1493 19.4722C15.6926 17.0173 13.234 14.5643 10.7782 12.1084C10.7119 12.0421 10.6474 11.9592 10.6207 11.8718C10.5378 11.5983 10.733 11.3579 11.0351 11.3552C11.5295 11.3515 12.024 11.3543 12.5185 11.3543V11.3552Z" fill="#FFFDF8"/>
<path d="M16.9034 22.757C16.419 22.757 15.9347 22.7542 15.4503 22.7588C15.2919 22.7607 15.1676 22.711 15.0544 22.5986C13.279 20.8233 11.5009 19.0507 9.72649 17.2744C9.65834 17.2063 9.59481 17.1124 9.57455 17.0203C9.51654 16.7578 9.69794 16.5442 9.96682 16.5433C10.9659 16.5415 11.965 16.5387 12.9641 16.5488C13.0737 16.5497 13.209 16.6068 13.2864 16.6833C15.0829 18.466 16.873 20.256 18.6649 22.0434C18.8021 22.1796 18.8491 22.338 18.7736 22.5157C18.6999 22.6889 18.559 22.7598 18.3702 22.7588C17.8813 22.7552 17.3914 22.7579 16.9025 22.7579L16.9034 22.757Z" fill="#FFFDF8"/>
<path d="M21.0469 14.4722C20.5681 14.4722 20.0883 14.4695 19.6095 14.4741C19.4456 14.4759 19.3195 14.4197 19.2034 14.3037C17.4327 12.532 15.6592 10.7613 13.8848 8.99332C13.7411 8.8506 13.6665 8.69774 13.7457 8.5016C13.8258 8.30547 13.9888 8.24469 14.1895 8.24562C15.1481 8.24746 16.1058 8.24746 17.0644 8.24562C17.2273 8.24562 17.3581 8.29994 17.4732 8.41597C19.2449 10.1876 21.0174 11.9575 22.7928 13.7254C22.9364 13.8691 23.0046 14.0284 22.9291 14.2208C22.8517 14.417 22.6869 14.4768 22.4852 14.475C22.0064 14.4704 21.5267 14.4741 21.0478 14.4731L21.0469 14.4722Z" fill="#FFFDF8"/>
<path d="M25.4257 11.4317V12.0201C25.4257 11.2816 25.0344 10.5984 24.3962 10.2254L17.3105 6.08266C16.6632 5.70328 15.8602 5.70328 15.2129 6.08266L8.12714 10.2254C7.48993 10.5984 7.09766 11.2807 7.09766 12.0201V11.4317C7.09766 10.6932 7.48901 10.01 8.12714 9.63703L15.2129 5.49425C15.8602 5.11487 16.6632 5.11487 17.3105 5.49425L24.3962 9.63703C25.0334 10.01 25.4257 10.6923 25.4257 11.4317Z" fill="#BF833D"/>
<path d="M22.9285 14.2734C22.922 14.2734 22.9156 14.2725 22.9092 14.2698C22.8815 14.2587 22.8677 14.2274 22.8788 14.1998C22.9395 14.046 22.8999 13.907 22.7545 13.7624C20.98 11.9935 19.2065 10.2237 17.4349 8.45292C17.3299 8.34795 17.212 8.29914 17.0656 8.29914H17.0647C16.1061 8.30098 15.1485 8.30098 14.1899 8.29914H14.188C13.9799 8.29914 13.8584 8.3682 13.7958 8.52198C13.7847 8.54961 13.7534 8.5625 13.7258 8.55145C13.6982 8.5404 13.6853 8.50909 13.6963 8.48147C13.7755 8.28625 13.9367 8.19141 14.188 8.19141H14.1899C15.1475 8.19325 16.1061 8.19325 17.0638 8.19141H17.0656C17.2406 8.19141 17.3861 8.25218 17.5113 8.37741C19.283 10.1482 21.0555 11.9189 22.8309 13.6869C23.0077 13.8628 23.0556 14.0442 22.9791 14.2394C22.9709 14.2605 22.9506 14.2734 22.9294 14.2734H22.9285Z" fill="white"/>
<path d="M21.8888 19.4596C21.8814 19.4596 21.875 19.4586 21.8676 19.4549C21.84 19.4439 21.8271 19.4117 21.8391 19.385C21.9026 19.2321 21.8658 19.0986 21.7175 18.9513C19.1613 16.4033 16.6733 13.919 14.3224 11.569C14.2092 11.4558 14.083 11.4097 13.9255 11.4088C13.5885 11.4125 13.2515 11.4125 12.9145 11.4116H12.0636C11.7211 11.4097 11.3776 11.4097 11.0351 11.4116C10.9006 11.4125 10.7846 11.4668 10.7165 11.5598C10.6548 11.6436 10.6391 11.7504 10.6723 11.8591C10.6806 11.8876 10.6649 11.9171 10.6364 11.9263C10.6078 11.9346 10.5774 11.9189 10.5691 11.8904C10.5259 11.7486 10.547 11.6086 10.6299 11.4963C10.7183 11.3757 10.8666 11.3057 11.0351 11.3038C11.3785 11.3011 11.7211 11.302 12.0646 11.302H12.9154C13.2515 11.3038 13.5885 11.3047 13.9246 11.3011C14.1143 11.2992 14.2653 11.36 14.3988 11.4935C16.7497 13.8444 19.2378 16.3278 21.794 18.8758C21.9726 19.0535 22.0196 19.234 21.9385 19.4273C21.9302 19.4476 21.91 19.4605 21.8888 19.4605V19.4596Z" fill="white"/>
<path d="M18.7746 22.5692C18.7673 22.5692 18.7608 22.5683 18.7535 22.5646C18.7258 22.5526 18.7129 22.5213 18.7249 22.4937C18.7884 22.3436 18.7571 22.2082 18.6282 22.0802L17.4008 20.8555C16.0416 19.4992 14.6365 18.0958 13.2497 16.7201C13.1825 16.6529 13.06 16.6023 12.9642 16.6013C12.0388 16.5921 11.0977 16.594 10.188 16.5958H9.96788C9.85094 16.5958 9.75149 16.6409 9.68703 16.721C9.62534 16.7984 9.60416 16.8997 9.6281 17.0074C9.63454 17.0369 9.61613 17.0654 9.58758 17.0719C9.5572 17.0783 9.52957 17.0599 9.52313 17.0314C9.49182 16.8914 9.52036 16.7579 9.60324 16.6547C9.68703 16.5498 9.82055 16.4899 9.96788 16.489H10.188C11.0987 16.4862 12.0397 16.4844 12.9652 16.4945C13.0895 16.4954 13.2377 16.5581 13.3252 16.6446C14.711 18.0203 16.1171 19.4237 17.4763 20.78L18.7037 22.0047C18.8621 22.1631 18.9035 22.3473 18.8234 22.536C18.8151 22.5563 18.7949 22.5692 18.7737 22.5692H18.7746Z" fill="white"/>
<path d="M28.4791 10.7421C28.4534 10.7421 28.4331 10.7218 28.4331 10.696C28.4331 9.36451 27.7167 8.12416 26.5638 7.45841L18.1309 2.59094C16.9781 1.92518 15.5462 1.92518 14.3933 2.59094L5.96043 7.45933C4.80756 8.12508 4.09208 9.36543 4.09208 10.696C4.09208 10.7218 4.07182 10.7421 4.04604 10.7421C4.02026 10.7421 4 10.7218 4 10.696C4 9.33228 4.7339 8.06154 5.91439 7.38014L14.3473 2.51175C15.5287 1.82942 16.9956 1.82942 18.177 2.51175L26.6099 7.38014C27.7913 8.06247 28.5243 9.3332 28.5243 10.6969C28.5243 10.7227 28.504 10.743 28.4782 10.743L28.4791 10.7421Z" fill="#FFEDC6"/>
<path d="M16.2628 26.0506C15.8889 26.0506 15.516 25.953 15.1826 25.7587L8.0573 21.5929C7.40352 21.2108 6.99744 20.5027 6.99744 19.7458C6.99744 19.7181 7.01954 19.696 7.04716 19.696C7.07479 19.696 7.09689 19.7181 7.09689 19.7458C7.09689 20.4677 7.48363 21.1427 8.10703 21.5073L15.2324 25.6731C15.8677 26.0442 16.6569 26.0451 17.2922 25.6731L24.4176 21.5073C25.041 21.1427 25.4277 20.4677 25.4277 19.7458C25.4277 19.7181 25.4498 19.696 25.4774 19.696C25.505 19.696 25.5271 19.7181 25.5271 19.7458C25.5271 20.5027 25.1211 21.2099 24.4673 21.5929L17.342 25.7587C17.0086 25.953 16.6357 26.0506 16.2618 26.0506H16.2628Z" fill="#FFEDC6"/>
</svg>
