<svg width="360" height="32" viewBox="0 0 360 32" fill="none" xmlns="http://www.w3.org/2000/svg">
<path fill-rule="evenodd" clip-rule="evenodd" d="M106.578 12.0026C106.95 12.0611 109.44 13.6606 110.425 15.0162C110.924 15.7038 110.997 16.4792 110.708 16.5816C109.827 16.892 109.224 16.1346 109.224 16.1346C109.37 16.6417 110.209 17.5438 111.067 18.2526C112.407 19.3595 114.042 20.3738 114.665 19.8666C114.834 19.7285 114.991 19.5058 114.998 19.2035C115.017 18.368 114.268 16.8709 112.204 14.8114C110.463 13.0754 107.963 12.3163 107.239 12.1456C107.007 12.0904 106.815 12.0172 106.576 12.001" fill="white"/>
<path fill-rule="evenodd" clip-rule="evenodd" d="M109.221 15.512C109.421 15.2681 109.902 15.4778 110.127 15.6729C110.351 15.8679 110.598 16.2369 110.486 16.4238C110.374 16.6108 109.91 16.5262 109.629 16.3133C109.353 16.1036 109.052 15.7184 109.22 15.5136" fill="white"/>
<path fill-rule="evenodd" clip-rule="evenodd" d="M113.159 19.975C112.728 20.0433 110.228 18.2293 109.138 16.6493C108.645 15.9341 108.572 15.2921 108.954 15.1783C109.804 14.9215 110.41 15.6919 110.423 15.6594C110.066 14.7735 108.265 13.2944 106.995 12.4849C106.096 11.9127 104.978 11.7713 104.749 12.7905C104.729 13.6292 105.459 15.045 107.504 17.1126C109.198 18.8258 111.636 19.6613 112.4 19.8499C112.647 19.91 112.902 19.9572 113.157 19.9734" fill="white"/>
<path fill-rule="evenodd" clip-rule="evenodd" d="M120.649 16.2024C120.835 16.1081 120.986 15.9927 121.098 15.8513C121.259 15.6497 121.337 15.3994 121.337 15.1036C121.337 14.6728 121.16 14.3038 120.825 14.0519C120.49 13.7983 120.004 13.6602 119.385 13.6602C118.879 13.6602 118.401 13.7154 117.971 13.7154C117.639 13.7154 117.386 13.7008 117.207 13.6878C117.026 13.6748 116.929 13.6602 116.883 13.6602C116.804 13.6602 116.734 13.678 116.68 13.7219C116.626 13.7658 116.599 13.8341 116.599 13.904C116.596 13.9885 116.643 14.0665 116.706 14.099C116.799 14.1478 116.901 14.1478 117.01 14.1673C117.117 14.1868 117.223 14.2177 117.316 14.3022C117.407 14.3867 117.451 14.4745 117.477 14.5964C117.503 14.7167 117.504 14.8695 117.504 15.0646V18.179C117.503 18.5333 117.416 18.7349 117.221 18.86C117.132 18.9137 117.044 18.9446 116.966 18.9901C116.888 19.0307 116.817 19.1185 116.82 19.2355C116.82 19.2973 116.846 19.3623 116.898 19.4013C116.948 19.4403 117.015 19.4566 117.088 19.4566C117.293 19.4566 117.634 19.3932 118.097 19.3932C118.317 19.3932 118.793 19.4566 119.495 19.4566H119.504C120.178 19.4566 120.703 19.3834 121.152 18.9836C121.519 18.6585 121.734 18.1692 121.734 17.6556C121.737 16.9339 121.305 16.3584 120.649 16.204M118.605 14.7964C118.605 14.5493 118.627 14.3802 118.689 14.2892C118.748 14.1998 118.845 14.1527 119.066 14.151C119.762 14.1559 120.254 14.5899 120.259 15.3279C120.259 15.6367 120.198 15.8302 120.074 15.9472C119.952 16.0642 119.746 16.1244 119.424 16.1244C119.057 16.1244 118.834 16.1114 118.73 16.0626C118.678 16.0382 118.653 16.0155 118.634 15.9748C118.614 15.9342 118.605 15.8708 118.605 15.7798V14.7947V14.7964ZM120.276 18.6276C120.079 18.8259 119.786 18.9429 119.393 18.9446C119.032 18.9446 118.84 18.8893 118.743 18.782C118.642 18.678 118.605 18.4862 118.605 18.1725V17.1078C118.603 16.8688 118.621 16.742 118.67 16.6965C118.712 16.6445 118.842 16.612 119.122 16.6136C119.585 16.6136 119.951 16.7323 120.196 16.9339C120.441 17.1354 120.576 17.4215 120.576 17.7824C120.576 18.1416 120.471 18.4277 120.274 18.6276H120.276ZM133.93 13.7105C133.879 13.6683 133.821 13.6634 133.759 13.6618C133.531 13.6618 133.197 13.7252 132.774 13.7252C132.465 13.7252 132.208 13.6699 132.003 13.6699C131.934 13.6699 131.872 13.6829 131.821 13.7235C131.771 13.7642 131.75 13.8292 131.75 13.891C131.747 13.9641 131.786 14.0356 131.842 14.0681C131.924 14.1169 132.015 14.1202 132.122 14.1445C132.229 14.1673 132.353 14.2031 132.485 14.2892C132.602 14.3656 132.667 14.4696 132.707 14.6241C132.748 14.7769 132.758 14.9768 132.758 15.2174V17.2427C132.758 17.3662 132.75 17.4573 132.735 17.5076C132.73 17.5272 132.723 17.5385 132.72 17.545C132.707 17.5402 132.678 17.5239 132.641 17.493C132.593 17.454 132.535 17.3955 132.467 17.3126L129.734 14.0324C129.627 13.9056 129.559 13.8194 129.477 13.7577C129.396 13.6959 129.3 13.6699 129.182 13.6715C128.957 13.6715 128.728 13.7122 128.499 13.7105C128.336 13.7105 128.179 13.6715 128.023 13.6715C127.961 13.6715 127.899 13.678 127.847 13.7268C127.797 13.7756 127.785 13.8422 127.785 13.917C127.782 13.9966 127.816 14.073 127.878 14.1072C127.966 14.1543 128.049 14.1445 128.141 14.164C128.234 14.1819 128.33 14.2144 128.434 14.3201C128.583 14.4648 128.652 14.7638 128.65 15.2434V17.2378C128.65 17.6832 128.627 18.0392 128.585 18.3025C128.546 18.5658 128.483 18.7365 128.429 18.7999C128.354 18.8942 128.247 18.9299 128.14 18.9641C128.086 18.9819 128.034 18.9966 127.985 19.0291C127.943 19.0551 127.906 19.1055 127.897 19.164C127.894 19.1396 127.888 19.1169 127.878 19.0957C127.85 19.0356 127.793 19.0031 127.743 18.9868C127.691 18.9673 127.631 18.9543 127.554 18.9283C127.325 18.847 127.238 18.7203 127.125 18.4634L125.1 13.73C125.053 13.6309 124.989 13.5447 124.877 13.5399C124.827 13.5399 124.772 13.5561 124.739 13.5935C124.707 13.6276 124.695 13.6634 124.679 13.6975L122.678 18.2017C122.52 18.5593 122.405 18.782 122.213 18.9072C122.147 18.9511 122.07 18.9706 121.997 19.0047C121.96 19.0226 121.922 19.0437 121.891 19.0827C121.86 19.1201 121.844 19.1721 121.844 19.2274C121.844 19.294 121.867 19.3607 121.916 19.4029C121.964 19.4468 122.029 19.4631 122.096 19.4631C122.158 19.4631 122.231 19.4436 122.343 19.4257C122.455 19.4078 122.602 19.3916 122.787 19.3916C123.289 19.3916 123.626 19.4696 123.811 19.4712C123.883 19.4712 123.949 19.455 124 19.4095C124.05 19.3639 124.073 19.2957 124.071 19.2274C124.076 19.1347 124.009 19.0583 123.938 19.0323C123.868 19.0015 123.787 18.9885 123.692 18.9689C123.515 18.9348 123.39 18.8828 123.314 18.821C123.239 18.7576 123.206 18.691 123.205 18.5918C123.205 18.5284 123.224 18.4488 123.263 18.3496L123.478 17.7433C123.54 17.5808 123.592 17.5207 123.66 17.4898C123.73 17.4573 123.845 17.4524 124.024 17.454H125.144C125.303 17.454 125.394 17.4605 125.448 17.493C125.503 17.5223 125.554 17.5889 125.619 17.7482L125.841 18.2814C125.893 18.4 125.914 18.5187 125.914 18.6016C125.914 18.7056 125.885 18.7674 125.843 18.8178C125.779 18.8925 125.672 18.9381 125.57 18.982C125.518 19.0047 125.469 19.0275 125.423 19.0616C125.38 19.0941 125.341 19.1526 125.342 19.2209C125.342 19.2843 125.36 19.3412 125.394 19.3883C125.428 19.4338 125.484 19.4663 125.547 19.4663C125.606 19.4663 125.7 19.4452 125.867 19.4257C126.033 19.4062 126.262 19.3867 126.556 19.3867C127.083 19.3867 127.455 19.4582 127.676 19.4582C127.733 19.4582 127.789 19.4582 127.844 19.4127C127.886 19.3688 127.894 19.3184 127.897 19.2599C127.904 19.3054 127.919 19.3477 127.945 19.3851C127.984 19.4387 128.052 19.468 128.12 19.4663C128.276 19.4663 128.562 19.3948 129.017 19.3948C129.44 19.3948 129.7 19.4728 129.851 19.4745C129.929 19.4745 129.993 19.4745 130.056 19.4338C130.121 19.3883 130.137 19.3103 130.136 19.2306C130.139 19.1412 130.085 19.0632 130.019 19.0307C129.921 18.9787 129.807 18.9738 129.694 18.9511C129.58 18.9299 129.476 18.8974 129.406 18.8259C129.299 18.7154 129.234 18.5366 129.201 18.2749C129.169 18.0148 129.165 17.6767 129.165 17.2606V15.4092C129.165 15.3019 129.173 15.2222 129.186 15.18C129.186 15.1735 129.19 15.1686 129.191 15.1637C129.221 15.1832 129.271 15.2239 129.313 15.2759L132.579 19.1364C132.673 19.2469 132.746 19.3412 132.821 19.4127C132.894 19.4842 132.979 19.5379 133.083 19.5379H133.084C133.122 19.5379 133.161 19.5184 133.185 19.4923C133.253 19.4094 133.26 19.2989 133.263 19.1266L133.31 15.1003C133.314 14.8711 133.32 14.694 133.354 14.559C133.388 14.4241 133.442 14.3331 133.551 14.2469C133.637 14.1771 133.725 14.1543 133.809 14.1234C133.85 14.1072 133.894 14.0876 133.93 14.0486C133.967 14.0096 133.986 13.9527 133.986 13.891C133.986 13.8259 133.972 13.7626 133.921 13.7187L133.93 13.7105ZM125.215 16.8818C125.185 16.89 125.139 16.8948 125.077 16.8948H124.164C124.039 16.8948 123.952 16.89 123.912 16.877C123.891 16.8705 123.886 16.8656 123.886 16.8656C123.886 16.8656 123.886 16.8656 123.884 16.8542C123.884 16.8445 123.897 16.7729 123.935 16.6852L124.529 15.2872C124.542 15.2547 124.557 15.2336 124.568 15.2239C124.568 15.2239 124.57 15.2222 124.572 15.2206C124.585 15.2352 124.606 15.2661 124.624 15.3165L125.188 16.6608C125.214 16.7242 125.232 16.7778 125.241 16.8152C125.246 16.8331 125.25 16.8493 125.251 16.8591C125.251 16.8623 125.251 16.864 125.251 16.8656C125.246 16.8688 125.235 16.8753 125.214 16.8802L125.215 16.8818ZM139.853 18.9689C139.793 18.9527 139.72 18.9283 139.627 18.8633C139.489 18.769 139.3 18.5675 139.089 18.2765L137.603 16.2674C137.519 16.1618 137.489 16.0821 137.491 16.0512C137.491 16.035 137.54 15.9602 137.634 15.8675L138.483 15.0581C139.025 14.546 139.414 14.286 139.521 14.2291C139.642 14.1673 139.742 14.1494 139.83 14.1202C139.874 14.1039 139.918 14.086 139.954 14.0454C139.989 14.0048 140.007 13.9495 140.006 13.8893C140.007 13.8211 139.981 13.7495 139.924 13.7122C139.869 13.6748 139.807 13.6699 139.737 13.6683C139.555 13.6683 139.31 13.7235 138.959 13.7235C138.632 13.7235 138.349 13.6764 138.101 13.6764C138.036 13.6764 137.98 13.6829 137.932 13.717C137.881 13.7528 137.863 13.8146 137.865 13.865C137.865 13.9219 137.871 13.9674 137.892 14.0096C137.923 14.0746 137.992 14.1023 138.042 14.1104C138.096 14.1202 138.148 14.1218 138.208 14.1332C138.299 14.1543 138.333 14.1982 138.335 14.2632C138.335 14.2811 138.32 14.338 138.278 14.4111C138.153 14.6371 137.818 15.032 137.28 15.5408L136.374 16.3991C136.352 16.4218 136.329 16.4365 136.309 16.4462C136.3 16.4511 136.291 16.4543 136.285 16.456C136.285 16.456 136.285 16.456 136.283 16.456C136.278 16.4348 136.274 16.3844 136.275 16.3129V14.9865C136.275 14.9622 136.275 14.9394 136.275 14.915C136.275 14.7525 136.278 14.6224 136.303 14.5184C136.327 14.4144 136.369 14.3363 136.456 14.2583C136.542 14.1803 136.638 14.151 136.729 14.1169C136.774 14.099 136.82 14.0811 136.86 14.0438C136.901 14.0064 136.929 13.9462 136.927 13.8828C136.927 13.8211 136.907 13.7593 136.865 13.717C136.821 13.6732 136.761 13.6537 136.699 13.6553C136.577 13.6553 136.213 13.7268 135.571 13.7268C135.043 13.7268 134.705 13.665 134.539 13.6634C134.458 13.6634 134.386 13.6845 134.334 13.73C134.282 13.7739 134.255 13.8406 134.255 13.9088C134.251 13.9934 134.299 14.0714 134.362 14.1039C134.455 14.1527 134.557 14.1527 134.666 14.1722C134.773 14.1917 134.879 14.2226 134.972 14.3071C135.063 14.3916 135.106 14.4794 135.132 14.5997C135.158 14.72 135.16 14.8728 135.16 15.0678V18.0067C135.16 18.205 135.155 18.3626 135.129 18.4894C135.102 18.6162 135.056 18.7089 134.97 18.7934C134.889 18.8763 134.783 18.9137 134.684 18.9624C134.635 18.9868 134.585 19.0145 134.544 19.0583C134.503 19.1022 134.476 19.1673 134.477 19.2388C134.477 19.3005 134.503 19.3656 134.555 19.4046C134.606 19.4436 134.672 19.4598 134.746 19.4598C134.96 19.4598 135.323 19.3883 135.833 19.3883C136.28 19.3883 136.602 19.4582 136.802 19.4598C136.872 19.4598 136.938 19.4501 136.99 19.4013C137.042 19.3509 137.054 19.2827 137.054 19.2079C137.054 19.1364 137.026 19.0697 136.979 19.0307C136.909 18.9722 136.826 18.9592 136.747 18.9397C136.665 18.9202 136.587 18.8974 136.521 18.8503C136.407 18.769 136.35 18.6715 136.314 18.5268C136.28 18.3822 136.275 18.1903 136.275 17.953C136.275 17.9059 136.275 17.849 136.275 17.7937V17.3971C136.275 17.3142 136.278 17.2476 136.29 17.1988C136.301 17.15 136.317 17.1192 136.352 17.0915L136.607 16.8672C136.639 16.838 136.664 16.8184 136.68 16.8071C136.69 16.8184 136.704 16.838 136.724 16.8623L138.367 19.1559C138.486 19.3233 138.619 19.4241 138.764 19.4273C138.892 19.4273 139.037 19.3867 139.201 19.3883C139.38 19.3883 139.586 19.4355 139.812 19.4355C139.887 19.4355 139.957 19.4241 140.01 19.3737C140.064 19.3233 140.08 19.2518 140.08 19.1754C140.08 19.125 140.066 19.0697 140.027 19.0356C139.967 18.9885 139.915 18.9901 139.854 18.9722L139.853 18.9689ZM148.851 18.9657C148.783 18.9511 148.708 18.9299 148.617 18.8633C148.507 18.7804 148.448 18.6894 148.409 18.5658C148.372 18.4423 148.359 18.283 148.356 18.0831L148.268 14.8971V14.8272C148.268 14.6533 148.284 14.5184 148.318 14.4209C148.354 14.3233 148.403 14.2632 148.481 14.2209C148.639 14.1348 148.736 14.125 148.814 14.1104C148.851 14.1023 148.894 14.0958 148.934 14.06C148.975 14.021 148.983 13.9674 148.983 13.9153C148.983 13.8422 148.975 13.7788 148.926 13.7268C148.874 13.678 148.811 13.6715 148.747 13.6715C148.593 13.6715 148.396 13.7268 148.136 13.7268C147.969 13.7268 147.862 13.6959 147.771 13.6959C147.705 13.6959 147.647 13.704 147.597 13.7349C147.546 13.7658 147.514 13.8129 147.488 13.8666L145.573 17.7433C145.561 17.7677 145.548 17.7823 145.54 17.7905C145.537 17.7937 145.534 17.7954 145.532 17.7954C145.532 17.7954 145.527 17.7921 145.521 17.7824C145.513 17.771 145.503 17.7531 145.493 17.7303L143.738 13.956C143.697 13.8682 143.666 13.8048 143.617 13.7561C143.567 13.7057 143.497 13.6862 143.429 13.6878C143.375 13.6878 143.213 13.7122 142.92 13.7122C142.72 13.7122 142.567 13.7024 142.46 13.6927C142.35 13.6829 142.296 13.6732 142.26 13.6732C142.197 13.6732 142.137 13.6829 142.089 13.7284C142.042 13.7739 142.033 13.8341 142.033 13.8942C142.033 13.9592 142.052 14.0226 142.096 14.06C142.163 14.1153 142.231 14.1202 142.299 14.1413C142.369 14.1608 142.441 14.1868 142.52 14.2551C142.775 14.4729 142.827 14.8402 142.827 15.3718C142.827 15.5359 142.819 15.6611 142.819 15.7521L142.732 17.7661C142.712 18.3578 142.634 18.717 142.517 18.8178C142.447 18.886 142.333 18.9299 142.229 18.9722C142.177 18.995 142.127 19.0161 142.083 19.0518C142.039 19.0844 142 19.1412 142.002 19.2079C142.002 19.2729 142.023 19.3314 142.055 19.3769C142.088 19.4208 142.133 19.4582 142.198 19.4615C142.351 19.4615 142.624 19.3981 143.032 19.3981C143.383 19.3981 143.637 19.4533 143.819 19.4533C143.887 19.4533 143.947 19.4501 144.004 19.4143C144.064 19.3769 144.089 19.3038 144.087 19.2323C144.087 19.164 144.069 19.1006 144.029 19.0583C143.965 18.995 143.889 18.9852 143.819 18.9722C143.747 18.9608 143.674 18.9494 143.608 18.9153C143.47 18.8438 143.393 18.7528 143.344 18.6211C143.296 18.4894 143.279 18.3155 143.279 18.0961V17.7547L143.351 15.7879C143.352 15.7554 143.356 15.7278 143.359 15.705C143.367 15.7213 143.375 15.7408 143.385 15.7619L144.934 19.177C144.962 19.2339 144.978 19.2827 145.012 19.3314C145.045 19.3802 145.111 19.4176 145.179 19.4143C145.251 19.416 145.316 19.3802 145.352 19.3331C145.389 19.2875 145.409 19.2372 145.433 19.1868L147.107 15.7976C147.132 15.7505 147.154 15.7115 147.174 15.6839C147.177 15.7034 147.18 15.7261 147.182 15.7538L147.286 18.2196V18.3854C147.286 18.5284 147.275 18.6341 147.242 18.7154C147.211 18.795 147.163 18.8552 147.073 18.9169C147.007 18.9608 146.935 18.9803 146.865 19.0112C146.831 19.0275 146.795 19.047 146.766 19.0827C146.737 19.1185 146.72 19.1673 146.72 19.2176C146.72 19.2892 146.742 19.3607 146.795 19.4046C146.849 19.4485 146.916 19.4615 146.989 19.4615C147.151 19.4615 147.439 19.3899 147.91 19.3899C148.382 19.3899 148.671 19.4517 148.832 19.4533C148.916 19.4533 148.986 19.4452 149.047 19.3964C149.105 19.3444 149.116 19.2697 149.116 19.1933C149.116 19.1315 149.1 19.0714 149.055 19.034C148.986 18.982 148.925 18.9868 148.858 18.9706L148.851 18.9657ZM155.012 18.982C154.96 18.9624 154.9 18.9494 154.823 18.9234C154.594 18.8422 154.505 18.7154 154.394 18.4585L152.369 13.7252C152.322 13.626 152.258 13.5399 152.146 13.535C152.096 13.535 152.041 13.5512 152.008 13.5886C151.976 13.6244 151.964 13.6585 151.948 13.6927L149.947 18.1968C149.789 18.5545 149.672 18.7771 149.482 18.9023C149.415 18.9462 149.339 18.9657 149.266 18.9998C149.229 19.0177 149.191 19.0388 149.16 19.0779C149.129 19.1152 149.113 19.1673 149.113 19.2225C149.113 19.2892 149.136 19.3558 149.185 19.3981C149.233 19.442 149.298 19.4582 149.365 19.4582C149.427 19.4582 149.5 19.4387 149.612 19.4208C149.724 19.403 149.871 19.3867 150.056 19.3867C150.558 19.3867 150.895 19.4647 151.08 19.4663C151.15 19.4663 151.217 19.4501 151.267 19.4046C151.317 19.3591 151.34 19.2908 151.338 19.2225C151.343 19.1299 151.275 19.0535 151.205 19.0275C151.134 18.9966 151.054 18.9836 150.96 18.9641C150.783 18.9299 150.657 18.8779 150.581 18.8162C150.506 18.7528 150.474 18.6861 150.472 18.587C150.472 18.5236 150.492 18.4439 150.531 18.3448L150.745 17.7401C150.807 17.5775 150.859 17.5174 150.927 17.4865C150.997 17.454 151.112 17.4491 151.291 17.4508H152.411C152.571 17.4508 152.662 17.4573 152.717 17.4898C152.772 17.519 152.822 17.5857 152.887 17.745L153.11 18.2781C153.162 18.3968 153.183 18.5154 153.183 18.5983C153.183 18.7024 153.154 18.7641 153.112 18.8145C153.048 18.8893 152.941 18.9348 152.839 18.9787C152.787 19.0015 152.738 19.0242 152.692 19.0583C152.649 19.0909 152.61 19.1494 152.611 19.2176C152.611 19.281 152.629 19.3379 152.663 19.3851C152.697 19.4306 152.753 19.4631 152.814 19.4631C152.873 19.4631 152.967 19.442 153.135 19.4225C153.3 19.4029 153.53 19.3834 153.824 19.3834C154.35 19.3834 154.723 19.4533 154.944 19.455C155.001 19.455 155.056 19.455 155.111 19.4095C155.162 19.3574 155.163 19.2989 155.165 19.2274C155.165 19.1803 155.16 19.138 155.142 19.099C155.114 19.0388 155.058 19.0063 155.007 18.9885L155.012 18.982ZM152.481 16.8802C152.452 16.8883 152.405 16.8932 152.343 16.8932H151.429C151.304 16.8932 151.218 16.8883 151.178 16.8753C151.156 16.8688 151.151 16.864 151.151 16.864C151.151 16.864 151.151 16.864 151.151 16.8526C151.151 16.8428 151.163 16.7713 151.202 16.6835L151.797 15.2856C151.81 15.2531 151.824 15.232 151.836 15.2222C151.836 15.2222 151.837 15.2206 151.839 15.219C151.852 15.2336 151.873 15.2645 151.891 15.3149L152.457 16.6591C152.483 16.7225 152.501 16.7762 152.51 16.8136C152.515 16.8315 152.519 16.8477 152.52 16.8575C152.52 16.8607 152.52 16.8623 152.52 16.864C152.515 16.8672 152.504 16.8737 152.481 16.8786V16.8802ZM158.773 14.6094C158.926 14.3331 159.097 14.1705 159.209 14.1283C159.258 14.1088 159.318 14.1007 159.381 14.073C159.448 14.047 159.51 13.9657 159.505 13.865C159.506 13.8016 159.484 13.7317 159.427 13.6943C159.372 13.6585 159.31 13.6536 159.237 13.652C159.046 13.652 158.814 13.7073 158.554 13.7073C158.079 13.7073 157.816 13.6602 157.712 13.6602C157.639 13.6602 157.575 13.6732 157.525 13.7122C157.473 13.7528 157.45 13.8178 157.452 13.8796C157.452 13.9381 157.466 13.9934 157.504 14.034C157.562 14.0925 157.632 14.1007 157.701 14.1088C157.77 14.1169 157.847 14.1234 157.931 14.1445C158.138 14.2063 158.219 14.3103 158.222 14.4745C158.222 14.5964 158.156 14.7118 158.073 14.8679L157.319 16.2577C157.304 16.2837 157.291 16.3015 157.283 16.3113C157.278 16.3048 157.271 16.295 157.267 16.2837L156.376 14.5899C156.299 14.4534 156.273 14.3494 156.273 14.3006C156.273 14.2372 156.291 14.2096 156.319 14.1836C156.36 14.1429 156.444 14.1185 156.529 14.086C156.571 14.0698 156.615 14.0503 156.652 14.0161C156.691 13.982 156.72 13.9251 156.719 13.8633C156.72 13.7951 156.699 13.7219 156.637 13.6845C156.579 13.6504 156.52 13.652 156.451 13.6504C156.345 13.6504 156.067 13.7057 155.545 13.7057C155.246 13.7057 155.014 13.6927 154.848 13.678C154.68 13.665 154.586 13.6504 154.537 13.6504C154.463 13.6504 154.396 13.6602 154.339 13.6943C154.281 13.7284 154.243 13.7999 154.246 13.8698C154.246 13.9332 154.268 13.9917 154.308 14.0291C154.37 14.086 154.441 14.0974 154.51 14.112C154.58 14.125 154.648 14.138 154.705 14.1624C154.819 14.2112 155.015 14.4079 155.168 14.6988L156.32 16.8282C156.377 16.929 156.42 16.9875 156.423 17.1809V17.745C156.423 17.8718 156.423 17.9839 156.423 18.0863C156.423 18.3123 156.416 18.4748 156.379 18.5902C156.34 18.704 156.281 18.7788 156.147 18.8519C156.031 18.9186 155.895 18.9364 155.774 18.9641C155.714 18.9787 155.656 18.995 155.605 19.0323C155.553 19.0697 155.518 19.138 155.519 19.2128C155.519 19.2827 155.552 19.3493 155.607 19.3932C155.662 19.4371 155.735 19.4582 155.82 19.4582C156.096 19.4582 156.525 19.3786 157.091 19.3786C157.618 19.3786 157.99 19.4501 158.211 19.4501C158.287 19.4501 158.357 19.4355 158.411 19.3899C158.465 19.3444 158.487 19.2745 158.487 19.2063C158.491 19.1185 158.445 19.0405 158.382 19.0015C158.289 18.9429 158.178 18.9332 158.068 18.9153C157.957 18.8991 157.85 18.8779 157.777 18.8308C157.671 18.7576 157.619 18.6764 157.587 18.5463C157.554 18.4163 157.549 18.2407 157.549 18.0067C157.549 17.927 157.549 17.8392 157.549 17.7531V17.0541C157.549 17.0379 157.549 17.0216 157.549 17.007C157.549 16.916 157.554 16.8542 157.627 16.7193L158.78 14.6062L158.773 14.6094ZM164.749 18.9803C164.697 18.9608 164.636 18.9478 164.56 18.9218C164.331 18.8405 164.243 18.7137 164.131 18.4569L162.106 13.7235C162.058 13.6244 161.995 13.5382 161.883 13.5334C161.831 13.5334 161.777 13.5496 161.745 13.587C161.712 13.6228 161.701 13.6569 161.685 13.691L159.684 18.1952C159.526 18.5528 159.411 18.7755 159.219 18.9007C159.152 18.9446 159.076 18.9641 159.003 18.9982C158.965 19.0161 158.928 19.0372 158.897 19.0762C158.866 19.1136 158.85 19.1656 158.85 19.2209C158.85 19.2875 158.872 19.3542 158.921 19.3964C158.97 19.4403 159.035 19.4566 159.102 19.4566C159.163 19.4566 159.237 19.4371 159.349 19.4192C159.461 19.4013 159.607 19.3851 159.793 19.3851C160.295 19.3851 160.631 19.4631 160.817 19.4647C160.886 19.4647 160.955 19.4485 161.005 19.4029C161.056 19.3574 161.078 19.2892 161.077 19.2209C161.082 19.1282 161.015 19.0518 160.943 19.0258C160.872 18.995 160.792 18.982 160.698 18.9624C160.521 18.9283 160.396 18.8763 160.321 18.8145C160.246 18.7511 160.214 18.6845 160.212 18.5853C160.212 18.5219 160.231 18.4423 160.27 18.3431L160.485 17.7385C160.547 17.5759 160.599 17.5158 160.667 17.4849C160.737 17.4524 160.852 17.4475 161.031 17.4491H162.063C162.094 17.4491 162.127 17.4491 162.151 17.4491C162.31 17.4491 162.401 17.4556 162.457 17.4881C162.512 17.5174 162.562 17.584 162.629 17.7433L162.852 18.2765C162.904 18.3952 162.925 18.5138 162.925 18.5951C162.925 18.6991 162.896 18.7609 162.853 18.8113C162.79 18.8861 162.683 18.9316 162.58 18.9754C162.528 18.9982 162.479 19.021 162.434 19.0551C162.39 19.0876 162.351 19.1461 162.353 19.2144C162.353 19.2778 162.371 19.3347 162.405 19.3802C162.439 19.4257 162.494 19.4582 162.556 19.4582C162.614 19.4582 162.707 19.4371 162.876 19.4176C163.042 19.3981 163.271 19.3786 163.565 19.3786C164.092 19.3786 164.464 19.4501 164.685 19.4501C164.742 19.4501 164.797 19.4501 164.853 19.4046C164.903 19.3526 164.905 19.294 164.906 19.2225C164.906 19.1754 164.901 19.1331 164.883 19.0941C164.856 19.034 164.799 19.0015 164.749 18.9836V18.9803ZM162.218 16.8786C162.187 16.8867 162.141 16.8916 162.08 16.8916H161.166C161.041 16.8916 160.955 16.8867 160.914 16.8737C160.893 16.8672 160.888 16.8623 160.888 16.8623C160.888 16.8623 160.888 16.8623 160.886 16.851C160.886 16.8412 160.899 16.7697 160.937 16.6819L161.532 15.284C161.545 15.2515 161.559 15.2304 161.571 15.2206C161.571 15.2206 161.572 15.219 161.574 15.2174C161.587 15.232 161.608 15.2629 161.626 15.3133L162.192 16.6575C162.218 16.7209 162.234 16.7746 162.245 16.8119C162.25 16.8298 162.253 16.8461 162.255 16.8558C162.255 16.8591 162.255 16.8607 162.255 16.8623C162.25 16.8656 162.239 16.8721 162.218 16.877V16.8786ZM167.353 16.4153C167.263 16.4153 167.192 16.4056 167.138 16.3958C167.081 16.3861 167.047 16.3763 167.003 16.3747C166.889 16.3747 166.806 16.4641 166.806 16.5632C166.806 16.6315 166.837 16.6949 166.886 16.7437C167.032 16.8851 167.314 16.9485 167.712 16.9517C168.203 16.9517 168.637 16.7762 168.946 16.4755C169.256 16.1764 169.441 15.7538 169.441 15.2694C169.441 14.798 169.266 14.3851 168.928 14.0958C168.59 13.8064 168.099 13.6423 167.473 13.6423C167.12 13.6423 166.641 13.7219 166.012 13.7219C165.491 13.7219 165.171 13.6602 165.027 13.6585C164.95 13.6585 164.882 13.678 164.831 13.7235C164.781 13.7691 164.758 13.8373 164.758 13.904C164.755 13.9869 164.797 14.0633 164.857 14.0974C164.945 14.1494 165.043 14.1494 165.14 14.1705C165.239 14.1901 165.334 14.2209 165.417 14.3006L165.47 14.2453L165.417 14.3022C165.5 14.3819 165.543 14.4713 165.569 14.5932C165.595 14.7151 165.6 14.8711 165.6 15.0646V18.179C165.599 18.5333 165.513 18.7349 165.319 18.86C165.23 18.9137 165.142 18.9446 165.064 18.9901C164.986 19.0307 164.914 19.1185 164.918 19.2355C164.918 19.2973 164.944 19.3623 164.996 19.4013C165.046 19.4403 165.113 19.4566 165.186 19.4566C165.384 19.4566 165.747 19.3851 166.273 19.3851C166.8 19.3851 167.088 19.455 167.242 19.4566C167.318 19.4566 167.387 19.4436 167.442 19.3981C167.497 19.3509 167.518 19.2794 167.518 19.2046C167.518 19.138 167.496 19.0762 167.453 19.0356C167.39 18.9754 167.314 18.9592 167.24 18.9413C167.166 18.9251 167.091 18.9088 167.029 18.8795C166.919 18.8243 166.844 18.7446 166.792 18.6292C166.741 18.5122 166.715 18.3561 166.715 18.1562V15.019C166.715 14.6907 166.72 14.4566 166.776 14.3298C166.803 14.2648 166.837 14.2274 166.891 14.1982C166.946 14.1689 167.027 14.1527 167.146 14.1527C167.501 14.1527 167.78 14.2811 167.975 14.5021C168.17 14.7232 168.282 15.0434 168.282 15.4335C168.282 15.7749 168.199 16.0187 168.05 16.178C167.9 16.3357 167.673 16.4202 167.351 16.4202L167.353 16.4153ZM174.742 18.9803C174.69 18.9608 174.63 18.9478 174.552 18.9218C174.323 18.8405 174.233 18.7137 174.123 18.4569L172.097 13.7235C172.05 13.6244 171.987 13.5382 171.875 13.5334C171.824 13.5334 171.769 13.5496 171.736 13.587C171.704 13.6211 171.693 13.6569 171.676 13.691L169.675 18.1952C169.518 18.5528 169.401 18.7755 169.211 18.9007C169.144 18.9446 169.067 18.9641 168.994 18.9982C168.957 19.0161 168.92 19.0372 168.889 19.0762C168.858 19.1136 168.842 19.1656 168.842 19.2209C168.842 19.2875 168.864 19.3542 168.913 19.3964C168.962 19.4403 169.027 19.4566 169.093 19.4566C169.155 19.4566 169.228 19.4371 169.341 19.4208C169.453 19.403 169.599 19.3851 169.784 19.3851C170.287 19.3851 170.623 19.4631 170.808 19.4647C170.88 19.4647 170.947 19.4485 170.997 19.4029C171.047 19.3574 171.07 19.2892 171.068 19.2209C171.073 19.1282 171.005 19.0518 170.935 19.0258C170.864 18.995 170.784 18.982 170.69 18.9624C170.513 18.9283 170.387 18.8763 170.313 18.8145C170.238 18.7511 170.205 18.6845 170.204 18.5853C170.204 18.5219 170.223 18.4423 170.262 18.3431L170.477 17.7368C170.539 17.5743 170.591 17.5141 170.659 17.4833C170.729 17.4508 170.844 17.4459 171.023 17.4475H172.143C172.302 17.4475 172.393 17.454 172.448 17.4865C172.504 17.5158 172.554 17.5824 172.619 17.7417L172.842 18.2749C172.894 18.3935 172.915 18.5122 172.915 18.5935C172.915 18.6975 172.886 18.7593 172.843 18.8097C172.782 18.8844 172.673 18.9299 172.57 18.9738C172.518 18.9966 172.47 19.0193 172.424 19.0535C172.38 19.086 172.341 19.1445 172.343 19.2128C172.343 19.2762 172.361 19.3331 172.396 19.3802C172.431 19.4257 172.486 19.4582 172.548 19.4582C172.606 19.4582 172.699 19.4371 172.868 19.4176C173.034 19.3981 173.263 19.3786 173.557 19.3786C174.084 19.3786 174.456 19.4501 174.677 19.4501C174.734 19.4501 174.789 19.4501 174.844 19.4046C174.895 19.3526 174.896 19.294 174.898 19.2225C174.898 19.1754 174.893 19.1331 174.875 19.0941C174.848 19.034 174.791 19.0015 174.74 18.9852L174.742 18.9803ZM172.211 16.8786C172.18 16.8867 172.135 16.8916 172.073 16.8916H171.159C171.034 16.8916 170.948 16.8867 170.907 16.8737C170.886 16.8672 170.881 16.8623 170.881 16.8623C170.881 16.8623 170.88 16.8623 170.88 16.851C170.88 16.8412 170.893 16.7697 170.929 16.6819L171.524 15.284C171.537 15.2515 171.551 15.2304 171.563 15.2206C171.563 15.2206 171.564 15.219 171.566 15.2174C171.579 15.232 171.6 15.2629 171.618 15.3133L172.183 16.6575C172.21 16.7209 172.226 16.7746 172.237 16.8119C172.242 16.8298 172.245 16.8461 172.247 16.8558C172.247 16.8591 172.247 16.8607 172.247 16.8623C172.242 16.8656 172.231 16.8721 172.21 16.877L172.211 16.8786ZM179.966 14.338C179.415 13.8845 178.606 13.6439 177.562 13.6439C177.101 13.6439 176.556 13.7235 175.911 13.7235C175.503 13.7235 175.243 13.6764 175.093 13.6764C175.007 13.6764 174.934 13.6943 174.875 13.7365C174.817 13.7788 174.784 13.8503 174.786 13.9202C174.784 13.9901 174.817 14.0584 174.869 14.0925C174.945 14.1445 175.028 14.1478 175.116 14.164C175.204 14.177 175.293 14.1949 175.374 14.2421L175.413 14.1738L175.376 14.2421C175.516 14.3201 175.582 14.3981 175.625 14.5086C175.667 14.6192 175.678 14.7736 175.677 14.9849V18.257C175.677 18.426 175.657 18.5561 175.615 18.6552C175.573 18.7544 175.509 18.8227 175.407 18.8795C175.322 18.9283 175.233 18.9592 175.155 19.0031C175.077 19.0437 174.999 19.125 175.002 19.2404C175.007 19.3818 175.127 19.4745 175.254 19.4761C175.285 19.4761 175.309 19.4696 175.365 19.4598C175.524 19.4338 175.88 19.3802 176.501 19.3802C176.86 19.3802 177.2 19.4273 177.533 19.4273C178.497 19.4273 179.316 19.0811 179.893 18.5122C180.47 17.9433 180.803 17.1549 180.803 16.2772C180.803 15.4579 180.521 14.7915 179.97 14.3363L179.966 14.338ZM179.076 18.3009C178.718 18.6926 178.214 18.9088 177.609 18.9088C177.208 18.9088 177.021 18.821 176.919 18.665C176.813 18.5057 176.788 18.2342 176.788 17.8506V14.824C176.788 14.5444 176.814 14.3786 176.896 14.2957C176.972 14.2096 177.14 14.1624 177.473 14.1624C178.778 14.1657 179.638 15.1718 179.643 16.6104C179.643 17.3337 179.431 17.9075 179.074 18.2993L179.076 18.3009ZM186.517 19.0892C186.489 19.0291 186.432 18.9966 186.382 18.9787C186.33 18.9592 186.27 18.9462 186.193 18.9202C185.964 18.8389 185.876 18.7121 185.764 18.4553L183.739 13.7219C183.692 13.6228 183.628 13.5366 183.516 13.5317C183.466 13.5317 183.411 13.548 183.378 13.5854C183.346 13.6211 183.334 13.6553 183.318 13.6894L181.317 18.1936C181.159 18.5512 181.042 18.7739 180.852 18.8991C180.786 18.9429 180.709 18.9624 180.636 18.9966C180.599 19.0145 180.561 19.0356 180.53 19.0746C180.499 19.112 180.483 19.164 180.483 19.2193C180.483 19.2859 180.506 19.3526 180.555 19.3948C180.603 19.4387 180.667 19.455 180.735 19.455C180.797 19.455 180.87 19.4355 180.982 19.4176C181.094 19.3997 181.241 19.3818 181.426 19.3818C181.928 19.3818 182.265 19.4598 182.45 19.4615C182.522 19.4615 182.588 19.4452 182.639 19.3997C182.689 19.3542 182.712 19.2859 182.71 19.2176C182.715 19.125 182.647 19.0486 182.577 19.0226C182.507 18.9917 182.426 18.9787 182.331 18.9592C182.154 18.9251 182.029 18.873 181.954 18.8113C181.879 18.7479 181.847 18.6812 181.845 18.5821C181.845 18.5187 181.865 18.439 181.904 18.3399L182.118 17.7336C182.18 17.571 182.232 17.5109 182.3 17.48C182.37 17.4475 182.486 17.4426 182.665 17.4443H183.785C183.944 17.4443 184.035 17.4508 184.09 17.4833C184.145 17.5125 184.196 17.5792 184.262 17.7385L184.485 18.2716C184.537 18.3903 184.558 18.5089 184.558 18.5902C184.558 18.6942 184.529 18.756 184.487 18.8064C184.423 18.8812 184.316 18.9267 184.214 18.9706C184.162 18.9933 184.111 19.0161 184.067 19.0502C184.023 19.0827 183.984 19.1412 183.986 19.2095C183.986 19.2729 184.004 19.3298 184.038 19.3769C184.072 19.4225 184.127 19.455 184.191 19.455C184.249 19.455 184.344 19.4338 184.511 19.4143C184.677 19.3948 184.906 19.3753 185.2 19.3753C185.727 19.3753 186.099 19.4452 186.32 19.4468C186.377 19.4452 186.432 19.4468 186.488 19.3997C186.538 19.3477 186.54 19.2892 186.541 19.2176C186.541 19.1705 186.536 19.1282 186.519 19.0892H186.517ZM183.851 16.8786C183.822 16.8867 183.775 16.8916 183.713 16.8916H182.799C182.674 16.8916 182.588 16.8867 182.548 16.8737C182.526 16.8672 182.522 16.8623 182.522 16.8623C182.522 16.8623 182.52 16.8623 182.52 16.851C182.52 16.8412 182.533 16.7697 182.57 16.6819L183.165 15.284C183.178 15.2515 183.193 15.2304 183.204 15.2206C183.204 15.2206 183.206 15.219 183.207 15.2174C183.22 15.232 183.242 15.2629 183.259 15.3133L183.824 16.6575C183.85 16.7209 183.867 16.7746 183.877 16.8119C183.882 16.8298 183.885 16.8461 183.887 16.8558C183.887 16.8591 183.887 16.8607 183.887 16.8623C183.882 16.8656 183.871 16.8721 183.848 16.877L183.851 16.8786Z" fill="white"/>
<rect x="192.89" y="8" width="0.634921" height="16" fill="white"/>
<path fill-rule="evenodd" clip-rule="evenodd" d="M208.661 14.9439L205.344 11.6282C205.298 11.5818 205.235 11.5557 205.17 11.5557H203.327C203.107 11.5557 202.998 11.8208 203.152 11.9765L206.468 15.2922C206.514 15.3385 206.577 15.3647 206.643 15.3647H208.485C208.705 15.3647 208.815 15.0996 208.66 14.9439H208.661ZM203.44 13.5326C203.394 13.4862 203.331 13.4601 203.265 13.4601H201.424C201.204 13.4601 201.094 13.7252 201.249 13.8809L205.835 18.4675C205.882 18.5138 205.945 18.54 206.01 18.54H207.853C208.073 18.54 208.182 18.2749 208.028 18.1191L203.44 13.5326ZM202.629 16.6331C202.695 16.6331 202.758 16.6593 202.804 16.7057H202.805L206.123 20.0237C206.278 20.1794 206.168 20.4446 205.948 20.4446H204.106C204.04 20.4446 203.977 20.4184 203.931 20.372L200.613 17.054C200.458 16.8983 200.568 16.6331 200.788 16.6331H202.629ZM253.182 14.6846V12.4734C253.182 12.2261 253.306 12.1024 253.553 12.1024C253.632 12.1024 253.711 12.1027 253.789 12.103C253.999 12.1037 254.21 12.1044 254.42 12.1001C254.535 12.0977 254.585 12.1274 254.585 12.2546C254.583 14.687 254.583 17.1182 254.585 19.5505C254.585 19.667 254.544 19.7039 254.432 19.7015C254.094 19.6967 253.756 19.6944 253.419 19.7015C253.301 19.7039 253.265 19.6504 253.253 19.5493C253.248 19.5082 253.247 19.4666 253.245 19.425C253.241 19.3402 253.238 19.2554 253.206 19.1748C253.173 19.1631 253.156 19.1819 253.141 19.1995C253.138 19.2034 253.134 19.2071 253.131 19.2105C252.66 19.6884 252.082 19.8941 251.419 19.8786C250.286 19.8513 249.371 19.1808 248.977 18.0514C248.591 16.9434 248.726 15.8948 249.454 14.9604C250.216 13.982 251.559 13.6967 252.623 14.2554C252.823 14.36 252.991 14.5087 253.182 14.6846ZM251.723 15.43C250.883 15.4264 250.231 16.0708 250.228 16.9089C250.224 17.7649 250.864 18.4425 251.711 18.4378C252.566 18.433 253.167 17.8326 253.18 16.9208C253.192 16.0672 252.563 15.4324 251.723 15.43ZM242.613 14.4475C242.607 14.5381 242.601 14.6328 242.561 14.7346V14.7335C242.446 14.5908 242.324 14.4838 242.195 14.3887C242.061 14.29 241.914 14.2092 241.76 14.1474C240.742 13.7372 239.534 14.0641 238.826 14.951C238.261 15.6572 238.051 16.4715 238.178 17.3596C238.334 18.4498 238.853 19.314 239.919 19.7111C240.851 20.0594 241.74 19.9358 242.491 19.2189C242.496 19.2142 242.5 19.2087 242.505 19.2031C242.522 19.1831 242.539 19.1625 242.574 19.1773C242.606 19.2585 242.61 19.3437 242.613 19.4286C242.615 19.4755 242.617 19.5224 242.624 19.5685C242.637 19.6612 242.674 19.7028 242.775 19.7016C243.138 19.6969 243.499 19.698 243.862 19.7016C243.965 19.7028 244.001 19.6588 244.001 19.5625V14.3221C244.001 14.2223 243.96 14.1854 243.859 14.1854C243.497 14.1902 243.134 14.1902 242.773 14.1854C242.669 14.1842 242.637 14.233 242.624 14.3221C242.618 14.3632 242.615 14.4049 242.613 14.4475ZM239.596 16.9126C239.598 16.0745 240.248 15.4289 241.088 15.4301C241.927 15.4319 242.556 16.0642 242.547 16.9173C242.537 17.8209 241.946 18.4272 241.083 18.4379C240.242 18.4474 239.594 17.7674 239.596 16.9126ZM214.179 19.8501C213.336 19.8501 212.682 19.6908 212.118 19.2461C211.871 19.05 211.667 18.8146 211.501 18.5435C211.444 18.4496 211.448 18.3914 211.542 18.326C211.874 18.0989 212.202 17.8683 212.527 17.6353C212.609 17.577 212.657 17.5818 212.716 17.6662C213.087 18.1916 213.614 18.3581 214.23 18.3141C214.451 18.2986 214.667 18.2606 214.866 18.156C215.258 17.9503 215.329 17.5758 215.035 17.2453C214.773 16.9517 214.431 16.7712 214.09 16.5913L214.086 16.5891C213.954 16.5193 213.82 16.4522 213.686 16.3852C213.347 16.2156 213.008 16.046 212.694 15.833C212.268 15.5453 211.954 15.1768 211.857 14.6584C211.673 13.6824 212.158 12.7658 213.091 12.3687C213.859 12.0418 214.642 12.0323 215.419 12.3485C215.873 12.534 216.199 12.8609 216.409 13.3055C216.459 13.4125 216.455 13.4779 216.349 13.548C216.056 13.743 215.767 13.9451 215.483 14.1532C215.382 14.2269 215.334 14.209 215.266 14.108C214.894 13.5599 214.025 13.4446 213.556 13.875C213.253 14.1532 213.27 14.4944 213.612 14.725C213.826 14.8702 214.063 14.9735 214.299 15.0766C214.386 15.1145 214.472 15.1523 214.558 15.1922C215.113 15.4502 215.653 15.7296 216.114 16.1492C217.096 17.0432 216.961 18.8396 215.574 19.5196C215.089 19.7573 214.576 19.856 214.177 19.8501H214.179ZM225.545 19.8824C227.175 19.8967 228.497 18.583 228.503 16.9448C228.508 15.3232 227.207 14.0024 225.614 13.9786C223.976 13.9549 222.621 15.2661 222.609 16.8901C222.597 18.5545 223.891 19.8681 225.545 19.8824ZM224.056 16.921C224.075 16.0781 224.72 15.429 225.567 15.4314C226.306 15.41 227.059 16.0068 227.064 16.9377C227.069 17.7734 226.383 18.4546 225.558 18.4415C224.593 18.4261 224.039 17.6391 224.056 16.921ZM219.009 17.3297V17.8908C219.009 18.039 219.009 18.1872 219.008 18.3353C219.008 18.7305 219.007 19.1256 219.011 19.5207C219.012 19.6634 218.964 19.7062 218.825 19.7038C218.462 19.6955 218.101 19.6955 217.738 19.7038C217.595 19.7074 217.554 19.6586 217.555 19.5195C217.558 18.3562 217.558 17.1929 217.557 16.0301L217.557 15.1589V12.3104C217.557 12.1047 217.557 12.1036 217.757 12.1036H218.814C219.007 12.1036 219.009 12.1059 219.009 12.3021V16.3846V16.5308C219.06 16.5106 219.085 16.4747 219.107 16.4416C219.112 16.4338 219.118 16.4262 219.123 16.419C219.229 16.2793 219.334 16.1395 219.44 15.9998C219.862 15.4407 220.285 14.8817 220.704 14.3195C220.777 14.2221 220.854 14.1852 220.974 14.1876C221.232 14.1912 221.491 14.1909 221.75 14.1906H221.75H221.75H221.75C221.922 14.1904 222.094 14.1902 222.266 14.1912C222.278 14.1912 222.292 14.1895 222.305 14.1878C222.348 14.1824 222.394 14.1767 222.413 14.2209C222.43 14.2609 222.399 14.2937 222.37 14.3251C222.36 14.3356 222.35 14.346 222.342 14.3564L222.048 14.7424C221.543 15.4033 221.039 16.0644 220.529 16.7222C220.438 16.8411 220.421 16.9136 220.529 17.042C221.074 17.6884 221.611 18.3406 222.148 18.9929C222.298 19.1756 222.449 19.3583 222.599 19.5409C222.607 19.5506 222.617 19.5601 222.627 19.5698C222.658 19.6009 222.69 19.6333 222.674 19.6741C222.656 19.7174 222.612 19.7121 222.569 19.707L222.569 19.707C222.555 19.7052 222.541 19.7035 222.528 19.7038C222.364 19.7047 222.2 19.7043 222.037 19.7039H222.036C221.75 19.7032 221.463 19.7025 221.177 19.7086C221.029 19.7121 220.934 19.6622 220.842 19.5492C220.423 19.0341 220 18.5216 219.577 18.0093L219.577 18.0092L219.577 18.0089C219.433 17.8344 219.289 17.66 219.146 17.4854C219.118 17.4526 219.091 17.4213 219.047 17.3728L219.047 17.3727L219.047 17.3726L219.047 17.3726L219.009 17.3297ZM233.002 17.3321C233.198 18.7825 234.465 19.8952 235.93 19.881V19.8798C236.616 19.8726 237.261 19.6503 237.743 19.2628C237.826 19.195 237.835 19.1439 237.769 19.0595C237.529 18.7516 237.292 18.4401 237.058 18.1262C236.997 18.0466 236.952 18.0347 236.87 18.1025C236.544 18.37 236.167 18.4686 235.748 18.4235C234.886 18.3319 234.266 17.4855 234.45 16.6402C234.692 15.5227 235.942 15.059 236.858 15.7509C236.958 15.8258 237.001 15.8056 237.061 15.7129C237.267 15.3979 237.474 15.0828 237.69 14.7749C237.766 14.6667 237.759 14.6073 237.649 14.53C236.96 14.0462 236.201 13.8785 235.378 14.0319C233.808 14.3243 232.793 15.8021 233.002 17.3321ZM230.917 14.7424L230.917 14.7423C231.027 14.6319 231.131 14.5284 231.25 14.4411C231.652 14.1462 232.1 13.9845 232.597 13.9536C232.698 13.9477 232.753 13.9655 232.734 14.0892C232.668 14.5115 232.608 14.9361 232.548 15.3597L232.548 15.3597L232.543 15.3945C232.528 15.4979 232.476 15.5348 232.374 15.5276C232.212 15.517 232.052 15.5336 231.894 15.5716C231.302 15.7143 231.01 16.1292 230.884 16.6903C230.835 16.9055 230.815 17.1243 230.816 17.3454C230.818 17.8249 230.818 18.3044 230.817 18.7839L230.817 18.7914C230.817 19.0287 230.816 19.2659 230.816 19.5031C230.816 19.6957 230.814 19.6981 230.618 19.6981C230.518 19.6981 230.418 19.6978 230.318 19.6976L230.317 19.6976H230.317C230.05 19.6969 229.783 19.6961 229.517 19.7005C229.402 19.7017 229.364 19.6612 229.364 19.5471C229.366 17.8102 229.366 16.0721 229.364 14.3352C229.364 14.2187 229.408 14.1831 229.519 14.1843C229.871 14.189 230.224 14.189 230.576 14.1843C230.693 14.1819 230.725 14.2306 230.736 14.3388C230.741 14.3852 230.744 14.4319 230.747 14.4792L230.747 14.4793C230.755 14.5991 230.763 14.7223 230.803 14.8536V14.8548C230.843 14.8167 230.88 14.7792 230.917 14.7424ZM246.689 14.7729C246.662 14.8004 246.634 14.8291 246.604 14.8593H246.603C246.564 14.7245 246.555 14.5992 246.547 14.4778C246.544 14.4333 246.541 14.3894 246.536 14.3458C246.525 14.2304 246.489 14.1829 246.368 14.1853C246.021 14.1912 245.672 14.1912 245.325 14.1853C245.205 14.1829 245.162 14.2221 245.162 14.3446C245.165 16.0767 245.165 17.81 245.162 19.5422C245.162 19.6634 245.205 19.7038 245.325 19.7015C245.589 19.6971 245.852 19.6979 246.115 19.6986C246.214 19.6988 246.313 19.6991 246.412 19.6991C246.616 19.6991 246.616 19.6991 246.616 19.4958C246.616 19.2576 246.616 19.0195 246.617 18.7813C246.617 18.305 246.618 17.8287 246.616 17.3523C246.615 17.1312 246.634 16.9125 246.683 16.6973C246.808 16.1361 247.095 15.7189 247.687 15.5738C247.845 15.5358 248.006 15.5156 248.168 15.5286C248.289 15.5382 248.332 15.4811 248.347 15.3717C248.405 14.9556 248.464 14.5395 248.531 14.1246C248.555 13.9843 248.512 13.9416 248.374 13.9534C247.787 14.0022 247.275 14.215 246.843 14.618C246.791 14.6665 246.742 14.7172 246.689 14.7729Z" fill="white"/>
</svg>
