<svg width="360" height="80" viewBox="0 0 360 80" fill="none" xmlns="http://www.w3.org/2000/svg">
<circle cx="64" cy="20" r="8" fill="#4CFFF3"/>
<path fill-rule="evenodd" clip-rule="evenodd" d="M67.1449 16.6526C67.4618 16.3157 68.0041 16.3157 68.321 16.6526C68.6043 16.9538 68.6043 17.4183 68.321 17.7195L63.1352 23.2332C62.6753 23.7221 61.8868 23.7221 61.4269 23.2332L59.546 21.2333C59.2627 20.9321 59.2627 20.4677 59.546 20.1665C59.8629 19.8295 60.4052 19.8295 60.7221 20.1665L62.281 21.8239L67.1449 16.6526Z" fill="#21292B"/>
<rect x="80" y="18" width="84" height="4" rx="2" fill="#4CFFF3"/>
<circle cx="180" cy="20" r="7.5" stroke="#4CFFF3"/>
<circle cx="180" cy="19.9999" r="4.66667" fill="#4CFFF3"/>
<rect x="196" y="18" width="84" height="4" rx="2" fill="#DCE2E4"/>
<circle cx="296" cy="20" r="7.5" stroke="#DCE2E4"/>
<path d="M56.3297 43.0923H55.2218C55.1792 42.8556 55.0998 42.6473 54.9838 42.4673C54.8678 42.2874 54.7258 42.1347 54.5577 42.0092C54.3896 41.8838 54.2014 41.7891 53.9931 41.7251C53.7871 41.6612 53.5681 41.6293 53.3361 41.6293C52.9171 41.6293 52.5418 41.7346 52.2104 41.9453C51.8813 42.156 51.6209 42.465 51.4292 42.8722C51.2398 43.2794 51.1451 43.7765 51.1451 44.3636C51.1451 44.9555 51.2398 45.455 51.4292 45.8622C51.6209 46.2694 51.8825 46.5772 52.214 46.7855C52.5454 46.9938 52.9183 47.098 53.3326 47.098C53.5622 47.098 53.78 47.0672 53.986 47.0057C54.1943 46.9418 54.3825 46.8482 54.5506 46.7251C54.7187 46.602 54.8607 46.4517 54.9767 46.2741C55.0951 46.0942 55.1768 45.8883 55.2218 45.6562L56.3297 45.6598C56.2705 46.0173 56.1557 46.3464 55.9853 46.647C55.8172 46.9453 55.6006 47.2034 55.3354 47.4212C55.0726 47.6366 54.772 47.8035 54.4334 47.9219C54.0949 48.0402 53.7256 48.0994 53.3255 48.0994C52.6957 48.0994 52.1346 47.9503 51.6422 47.652C51.1498 47.3513 50.7615 46.9216 50.4775 46.3629C50.1957 45.8042 50.0549 45.1378 50.0549 44.3636C50.0549 43.5871 50.1969 42.9207 50.481 42.3643C50.7651 41.8056 51.1533 41.3771 51.6458 41.0788C52.1382 40.7782 52.6981 40.6278 53.3255 40.6278C53.7114 40.6278 54.0712 40.6835 54.405 40.7947C54.7412 40.9036 55.043 41.0646 55.3105 41.2777C55.5781 41.4884 55.7994 41.7464 55.9746 42.0518C56.1498 42.3549 56.2682 42.7017 56.3297 43.0923ZM58.1428 48V40.7273H62.7024V41.6719H59.2401V43.8878H62.4645V44.8288H59.2401V47.0554H62.745V48H58.1428ZM64.6681 48V40.7273H65.7654V44.2003H65.8542L68.9047 40.7273H70.286L67.3528 44.0014L70.2967 48H68.9757L66.6248 44.7507L65.7654 45.7379V48H64.6681ZM39.4805 58.6378C39.4426 58.3016 39.2863 58.0412 39.0117 57.8565C38.7371 57.6695 38.3915 57.576 37.9748 57.576C37.6765 57.576 37.4184 57.6233 37.2006 57.718C36.9828 57.8104 36.8136 57.9382 36.6928 58.1016C36.5745 58.2625 36.5153 58.446 36.5153 58.652C36.5153 58.8248 36.5555 58.974 36.636 59.0994C36.7189 59.2249 36.8266 59.3303 36.9592 59.4155C37.0941 59.4983 37.2385 59.5682 37.3924 59.625C37.5463 59.6795 37.6942 59.7244 37.8363 59.7599L38.5465 59.9446C38.7785 60.0014 39.0165 60.0784 39.2603 60.1754C39.5041 60.2725 39.7302 60.4003 39.9386 60.5589C40.1469 60.7176 40.315 60.9141 40.4428 61.1484C40.573 61.3828 40.6381 61.6634 40.6381 61.9901C40.6381 62.402 40.5316 62.7678 40.3185 63.0874C40.1078 63.407 39.8013 63.6591 39.3988 63.8438C38.9987 64.0284 38.5146 64.1207 37.9464 64.1207C37.4019 64.1207 36.9308 64.0343 36.533 63.8615C36.1353 63.6887 35.824 63.4437 35.5991 63.1264C35.3742 62.8068 35.2499 62.428 35.2262 61.9901H36.3271C36.3484 62.2528 36.4336 62.4718 36.5827 62.647C36.7343 62.8198 36.9272 62.9489 37.1616 63.0341C37.3983 63.117 37.6576 63.1584 37.9393 63.1584C38.2494 63.1584 38.5252 63.1098 38.7667 63.0128C39.0105 62.9134 39.2023 62.776 39.342 62.6009C39.4817 62.4233 39.5515 62.2161 39.5515 61.9794C39.5515 61.764 39.4899 61.5876 39.3668 61.4503C39.2461 61.313 39.0816 61.1993 38.8732 61.1094C38.6673 61.0194 38.4341 60.9401 38.1737 60.8714L37.3143 60.6371C36.7319 60.4785 36.2702 60.2453 35.9293 59.9375C35.5908 59.6297 35.4215 59.2225 35.4215 58.7159C35.4215 58.2969 35.5352 57.9311 35.7624 57.6186C35.9897 57.3061 36.2975 57.0634 36.6857 56.8906C37.074 56.7154 37.512 56.6278 37.9996 56.6278C38.4921 56.6278 38.9265 56.7143 39.3029 56.8871C39.6817 57.0599 39.98 57.2978 40.1978 57.6009C40.4156 57.9015 40.5292 58.2472 40.5387 58.6378H39.4805ZM42.4494 64V56.7273H43.5467V60.2003H43.6355L46.6859 56.7273H48.0673L45.1341 60.0014L48.0779 64H46.7569L44.4061 60.7507L43.5467 61.7379V64H42.4494ZM55.5462 60.3636C55.5462 61.1402 55.4041 61.8078 55.12 62.3665C54.8359 62.9228 54.4465 63.3513 53.9517 63.652C53.4593 63.9503 52.8994 64.0994 52.272 64.0994C51.6423 64.0994 51.08 63.9503 50.5852 63.652C50.0928 63.3513 49.7045 62.9216 49.4205 62.3629C49.1364 61.8042 48.9943 61.1378 48.9943 60.3636C48.9943 59.5871 49.1364 58.9207 49.4205 58.3643C49.7045 57.8056 50.0928 57.3771 50.5852 57.0788C51.08 56.7782 51.6423 56.6278 52.272 56.6278C52.8994 56.6278 53.4593 56.7782 53.9517 57.0788C54.4465 57.3771 54.8359 57.8056 55.12 58.3643C55.4041 58.9207 55.5462 59.5871 55.5462 60.3636ZM54.4595 60.3636C54.4595 59.7718 54.3636 59.2734 54.1719 58.8686C53.9825 58.4614 53.7221 58.1536 53.3906 57.9453C53.0616 57.7346 52.6887 57.6293 52.272 57.6293C51.853 57.6293 51.4789 57.7346 51.1499 57.9453C50.8208 58.1536 50.5604 58.4614 50.3686 58.8686C50.1792 59.2734 50.0845 59.7718 50.0845 60.3636C50.0845 60.9555 50.1792 61.455 50.3686 61.8622C50.5604 62.267 50.8208 62.5748 51.1499 62.7855C51.4789 62.9938 51.853 63.098 52.272 63.098C52.6887 63.098 53.0616 62.9938 53.3906 62.7855C53.7221 62.5748 53.9825 62.267 54.1719 61.8622C54.3636 61.455 54.4595 60.9555 54.4595 60.3636ZM57.4142 64V56.7273H60.0066C60.57 56.7273 61.0376 56.8243 61.4093 57.0185C61.7833 57.2126 62.0627 57.4813 62.2473 57.8246C62.432 58.1655 62.5243 58.5597 62.5243 59.0071C62.5243 59.4522 62.4308 59.844 62.2438 60.1825C62.0591 60.5187 61.7798 60.7803 61.4057 60.9673C61.034 61.1544 60.5665 61.2479 60.003 61.2479H58.0392V60.3033H59.9036C60.2587 60.3033 60.5475 60.2524 60.7701 60.1506C60.995 60.0488 61.1595 59.9008 61.2637 59.7067C61.3678 59.5125 61.4199 59.2794 61.4199 59.0071C61.4199 58.7325 61.3667 58.4946 61.2601 58.2933C61.156 58.0921 60.9914 57.9382 60.7665 57.8317C60.544 57.7228 60.2516 57.6683 59.8894 57.6683H58.5115V64H57.4142ZM61.0044 60.7188L62.8013 64H61.5513L59.79 60.7188H61.0044ZM64.3596 64V56.7273H65.4569V63.0554H68.7523V64H64.3596ZM71.6014 56.7273V64H70.5041V56.7273H71.6014ZM73.6994 64V56.7273H78.2093V57.6719H74.7967V59.8878H77.8862V60.8288H74.7967V64H73.6994ZM80.0588 64V56.7273H84.6184V57.6719H81.1561V59.8878H84.3805V60.8288H81.1561V63.0554H84.661V64H80.0588Z" fill="white" fill-opacity="0.8"/>
<path d="M149.946 48V40.7273H152.61C153.126 40.7273 153.553 40.8125 153.892 40.983C154.23 41.151 154.484 41.3795 154.652 41.6683C154.82 41.9548 154.904 42.2779 154.904 42.6378C154.904 42.9408 154.848 43.1965 154.737 43.4048C154.626 43.6108 154.477 43.7765 154.29 43.902C154.105 44.0251 153.901 44.1151 153.679 44.1719V44.2429C153.92 44.2547 154.156 44.3329 154.385 44.4773C154.617 44.6193 154.809 44.8217 154.961 45.0845C155.112 45.3473 155.188 45.6669 155.188 46.0433C155.188 46.415 155.1 46.7488 154.925 47.0447C154.752 47.3383 154.485 47.5715 154.123 47.7443C153.76 47.9148 153.298 48 152.734 48H149.946ZM151.044 47.0589H152.628C153.153 47.0589 153.53 46.9571 153.757 46.7536C153.984 46.55 154.098 46.2955 154.098 45.9901C154.098 45.7604 154.04 45.5497 153.924 45.358C153.808 45.1662 153.642 45.0135 153.427 44.8999C153.214 44.7862 152.96 44.7294 152.667 44.7294H151.044V47.0589ZM151.044 43.8736H152.514C152.76 43.8736 152.982 43.8262 153.178 43.7315C153.377 43.6368 153.534 43.5043 153.65 43.3338C153.769 43.161 153.828 42.9574 153.828 42.723C153.828 42.4223 153.723 42.1702 153.512 41.9666C153.301 41.763 152.978 41.6612 152.542 41.6612H151.044V43.8736ZM161.666 40.7273H162.767V45.5107C162.767 46.0196 162.648 46.4706 162.408 46.8636C162.169 47.2543 161.833 47.562 161.4 47.7869C160.967 48.0095 160.459 48.1207 159.877 48.1207C159.296 48.1207 158.79 48.0095 158.357 47.7869C157.923 47.562 157.587 47.2543 157.348 46.8636C157.109 46.4706 156.989 46.0196 156.989 45.5107V40.7273H158.087V45.4219C158.087 45.7509 158.159 46.0433 158.303 46.299C158.45 46.5547 158.657 46.7559 158.925 46.9027C159.192 47.0471 159.51 47.1193 159.877 47.1193C160.246 47.1193 160.564 47.0471 160.832 46.9027C161.102 46.7559 161.308 46.5547 161.45 46.299C161.594 46.0433 161.666 45.7509 161.666 45.4219V40.7273ZM165.477 48H164.312L166.929 40.7273H168.197L170.814 48H169.649L167.593 42.0483H167.536L165.477 48ZM165.672 45.152H169.451V46.0753H165.672V45.152ZM171.146 41.6719V40.7273H176.775V41.6719H174.506V48H173.412V41.6719H171.146ZM182.28 48H181.115L183.732 40.7273H185L187.617 48H186.452L184.396 42.0483H184.339L182.28 48ZM182.475 45.152H186.253V46.0753H182.475V45.152ZM189.167 48V40.7273H190.264V44.2003H190.353L193.404 40.7273H194.785L191.852 44.0014L194.796 48H193.475L191.124 44.7507L190.264 45.7379V48H189.167ZM200.985 40.7273H202.085V45.5107C202.085 46.0196 201.966 46.4706 201.727 46.8636C201.488 47.2543 201.152 47.562 200.718 47.7869C200.285 48.0095 199.777 48.1207 199.195 48.1207C198.615 48.1207 198.108 48.0095 197.675 47.7869C197.242 47.562 196.906 47.2543 196.666 46.8636C196.427 46.4706 196.308 46.0196 196.308 45.5107V40.7273H197.405V45.4219C197.405 45.7509 197.477 46.0433 197.622 46.299C197.768 46.5547 197.976 46.7559 198.243 46.9027C198.511 47.0471 198.828 47.1193 199.195 47.1193C199.564 47.1193 199.883 47.0471 200.15 46.9027C200.42 46.7559 200.626 46.5547 200.768 46.299C200.912 46.0433 200.985 45.7509 200.985 45.4219V40.7273ZM210.051 40.7273V48H209.042L205.346 42.6662H205.278V48H204.181V40.7273H205.196L208.897 46.0682H208.964V40.7273H210.051ZM155.608 58.6378C155.571 58.3016 155.414 58.0412 155.14 57.8565C154.865 57.6695 154.519 57.576 154.103 57.576C153.804 57.576 153.546 57.6233 153.329 57.718C153.111 57.8104 152.941 57.9382 152.821 58.1016C152.702 58.2625 152.643 58.446 152.643 58.652C152.643 58.8248 152.683 58.974 152.764 59.0994C152.847 59.2249 152.955 59.3303 153.087 59.4155C153.222 59.4983 153.366 59.5682 153.52 59.625C153.674 59.6795 153.822 59.7244 153.964 59.7599L154.674 59.9446C154.906 60.0014 155.144 60.0784 155.388 60.1754C155.632 60.2725 155.858 60.4003 156.066 60.5589C156.275 60.7176 156.443 60.9141 156.571 61.1484C156.701 61.3828 156.766 61.6634 156.766 61.9901C156.766 62.402 156.66 62.7678 156.446 63.0874C156.236 63.407 155.929 63.6591 155.527 63.8438C155.127 64.0284 154.642 64.1207 154.074 64.1207C153.53 64.1207 153.059 64.0343 152.661 63.8615C152.263 63.6887 151.952 63.4437 151.727 63.1264C151.502 62.8068 151.378 62.428 151.354 61.9901H152.455C152.476 62.2528 152.562 62.4718 152.711 62.647C152.862 62.8198 153.055 62.9489 153.29 63.0341C153.526 63.117 153.785 63.1584 154.067 63.1584C154.377 63.1584 154.653 63.1098 154.895 63.0128C155.138 62.9134 155.33 62.776 155.47 62.6009C155.61 62.4233 155.679 62.2161 155.679 61.9794C155.679 61.764 155.618 61.5876 155.495 61.4503C155.374 61.313 155.209 61.1993 155.001 61.1094C154.795 61.0194 154.562 60.9401 154.302 60.8714L153.442 60.6371C152.86 60.4785 152.398 60.2453 152.057 59.9375C151.719 59.6297 151.549 59.2225 151.549 58.7159C151.549 58.2969 151.663 57.9311 151.89 57.6186C152.118 57.3061 152.425 57.0634 152.814 56.8906C153.202 56.7154 153.64 56.6278 154.128 56.6278C154.62 56.6278 155.054 56.7143 155.431 56.8871C155.81 57.0599 156.108 57.2978 156.326 57.6009C156.544 57.9015 156.657 58.2472 156.667 58.6378H155.608ZM158.577 64V56.7273H159.675V60.2003H159.763L162.814 56.7273H164.195L161.262 60.0014L164.206 64H162.885L160.534 60.7507L159.675 61.7379V64H158.577ZM171.674 60.3636C171.674 61.1402 171.532 61.8078 171.248 62.3665C170.964 62.9228 170.574 63.3513 170.08 63.652C169.587 63.9503 169.027 64.0994 168.4 64.0994C167.77 64.0994 167.208 63.9503 166.713 63.652C166.221 63.3513 165.832 62.9216 165.548 62.3629C165.264 61.8042 165.122 61.1378 165.122 60.3636C165.122 59.5871 165.264 58.9207 165.548 58.3643C165.832 57.8056 166.221 57.3771 166.713 57.0788C167.208 56.7782 167.77 56.6278 168.4 56.6278C169.027 56.6278 169.587 56.7782 170.08 57.0788C170.574 57.3771 170.964 57.8056 171.248 58.3643C171.532 58.9207 171.674 59.5871 171.674 60.3636ZM170.587 60.3636C170.587 59.7718 170.492 59.2734 170.3 58.8686C170.11 58.4614 169.85 58.1536 169.519 57.9453C169.189 57.7346 168.817 57.6293 168.4 57.6293C167.981 57.6293 167.607 57.7346 167.278 57.9453C166.949 58.1536 166.688 58.4614 166.497 58.8686C166.307 59.2734 166.212 59.7718 166.212 60.3636C166.212 60.9555 166.307 61.455 166.497 61.8622C166.688 62.267 166.949 62.5748 167.278 62.7855C167.607 62.9938 167.981 63.098 168.4 63.098C168.817 63.098 169.189 62.9938 169.519 62.7855C169.85 62.5748 170.11 62.267 170.3 61.8622C170.492 61.455 170.587 60.9555 170.587 60.3636ZM173.542 64V56.7273H176.134C176.698 56.7273 177.166 56.8243 177.537 57.0185C177.911 57.2126 178.191 57.4813 178.375 57.8246C178.56 58.1655 178.652 58.5597 178.652 59.0071C178.652 59.4522 178.559 59.844 178.372 60.1825C178.187 60.5187 177.908 60.7803 177.534 60.9673C177.162 61.1544 176.694 61.2479 176.131 61.2479H174.167V60.3033H176.032C176.387 60.3033 176.675 60.2524 176.898 60.1506C177.123 60.0488 177.287 59.9008 177.392 59.7067C177.496 59.5125 177.548 59.2794 177.548 59.0071C177.548 58.7325 177.495 58.4946 177.388 58.2933C177.284 58.0921 177.119 57.9382 176.894 57.8317C176.672 57.7228 176.38 57.6683 176.017 57.6683H174.639V64H173.542ZM177.132 60.7188L178.929 64H177.679L175.918 60.7188H177.132ZM186.528 59.0923H185.42C185.377 58.8556 185.298 58.6473 185.182 58.4673C185.066 58.2874 184.924 58.1347 184.756 58.0092C184.588 57.8838 184.4 57.7891 184.191 57.7251C183.985 57.6612 183.766 57.6293 183.534 57.6293C183.115 57.6293 182.74 57.7346 182.409 57.9453C182.08 58.156 181.819 58.465 181.627 58.8722C181.438 59.2794 181.343 59.7765 181.343 60.3636C181.343 60.9555 181.438 61.455 181.627 61.8622C181.819 62.2694 182.081 62.5772 182.412 62.7855C182.744 62.9938 183.117 63.098 183.531 63.098C183.76 63.098 183.978 63.0672 184.184 63.0057C184.393 62.9418 184.581 62.8482 184.749 62.7251C184.917 62.602 185.059 62.4517 185.175 62.2741C185.293 62.0942 185.375 61.8883 185.42 61.6562L186.528 61.6598C186.469 62.0173 186.354 62.3464 186.184 62.647C186.015 62.9453 185.799 63.2034 185.534 63.4212C185.271 63.6366 184.97 63.8035 184.632 63.9219C184.293 64.0402 183.924 64.0994 183.524 64.0994C182.894 64.0994 182.333 63.9503 181.84 63.652C181.348 63.3513 180.96 62.9216 180.676 62.3629C180.394 61.8042 180.253 61.1378 180.253 60.3636C180.253 59.5871 180.395 58.9207 180.679 58.3643C180.963 57.8056 181.352 57.3771 181.844 57.0788C182.336 56.7782 182.896 56.6278 183.524 56.6278C183.91 56.6278 184.269 56.6835 184.603 56.7947C184.939 56.9036 185.241 57.0646 185.509 57.2777C185.776 57.4884 185.998 57.7464 186.173 58.0518C186.348 58.3549 186.466 58.7017 186.528 59.0923ZM188.907 64H187.742L190.359 56.7273H191.627L194.244 64H193.079L191.023 58.0483H190.966L188.907 64ZM189.102 61.152H192.88V62.0753H189.102V61.152ZM195.794 64V56.7273H198.386C198.95 56.7273 199.417 56.8243 199.789 57.0185C200.163 57.2126 200.443 57.4813 200.627 57.8246C200.812 58.1655 200.904 58.5597 200.904 59.0071C200.904 59.4522 200.811 59.844 200.624 60.1825C200.439 60.5187 200.16 60.7803 199.786 60.9673C199.414 61.1544 198.946 61.2479 198.383 61.2479H196.419V60.3033H198.283C198.639 60.3033 198.927 60.2524 199.15 60.1506C199.375 60.0488 199.539 59.9008 199.644 59.7067C199.748 59.5125 199.8 59.2794 199.8 59.0071C199.8 58.7325 199.747 58.4946 199.64 58.2933C199.536 58.0921 199.371 57.9382 199.146 57.8317C198.924 57.7228 198.631 57.6683 198.269 57.6683H196.891V64H195.794ZM199.384 60.7188L201.181 64H199.931L198.17 60.7188H199.384ZM205.094 64H202.739V56.7273H205.168C205.881 56.7273 206.493 56.8729 207.004 57.1641C207.516 57.4529 207.908 57.8684 208.18 58.4105C208.454 58.9503 208.592 59.5978 208.592 60.353C208.592 61.1106 208.453 61.7616 208.176 62.3061C207.902 62.8506 207.504 63.2696 206.983 63.5632C206.462 63.8544 205.832 64 205.094 64ZM203.837 63.0412H205.033C205.587 63.0412 206.048 62.937 206.415 62.7287C206.782 62.518 207.056 62.2138 207.239 61.8161C207.421 61.416 207.512 60.9283 207.512 60.353C207.512 59.7824 207.421 59.2983 207.239 58.9006C207.059 58.5028 206.79 58.201 206.433 57.995C206.075 57.7891 205.631 57.6861 205.101 57.6861H203.837V63.0412Z" fill="white" fill-opacity="0.8"/>
<path d="M282.045 48V40.7273H284.708C285.225 40.7273 285.652 40.8125 285.99 40.983C286.329 41.151 286.582 41.3795 286.75 41.6683C286.918 41.9548 287.002 42.2779 287.002 42.6378C287.002 42.9408 286.947 43.1965 286.836 43.4048C286.724 43.6108 286.575 43.7765 286.388 43.902C286.203 44.0251 286 44.1151 285.777 44.1719V44.2429C286.019 44.2547 286.254 44.3329 286.484 44.4773C286.716 44.6193 286.908 44.8217 287.059 45.0845C287.211 45.3473 287.287 45.6669 287.287 46.0433C287.287 46.415 287.199 46.7488 287.024 47.0447C286.851 47.3383 286.583 47.5715 286.221 47.7443C285.859 47.9148 285.396 48 284.833 48H282.045ZM283.142 47.0589H284.726C285.252 47.0589 285.628 46.9571 285.855 46.7536C286.083 46.55 286.196 46.2955 286.196 45.9901C286.196 45.7604 286.138 45.5497 286.022 45.358C285.906 45.1662 285.741 45.0135 285.525 44.8999C285.312 44.7862 285.059 44.7294 284.765 44.7294H283.142V47.0589ZM283.142 43.8736H284.613C284.859 43.8736 285.08 43.8262 285.277 43.7315C285.475 43.6368 285.633 43.5043 285.749 43.3338C285.867 43.161 285.926 42.9574 285.926 42.723C285.926 42.4223 285.821 42.1702 285.61 41.9666C285.4 41.763 285.077 41.6612 284.641 41.6612H283.142V43.8736ZM295.406 44.3636C295.406 45.1402 295.263 45.8078 294.979 46.3665C294.695 46.9228 294.306 47.3513 293.811 47.652C293.319 47.9503 292.759 48.0994 292.131 48.0994C291.502 48.0994 290.939 47.9503 290.445 47.652C289.952 47.3513 289.564 46.9216 289.28 46.3629C288.996 45.8042 288.854 45.1378 288.854 44.3636C288.854 43.5871 288.996 42.9207 289.28 42.3643C289.564 41.8056 289.952 41.3771 290.445 41.0788C290.939 40.7782 291.502 40.6278 292.131 40.6278C292.759 40.6278 293.319 40.7782 293.811 41.0788C294.306 41.3771 294.695 41.8056 294.979 42.3643C295.263 42.9207 295.406 43.5871 295.406 44.3636ZM294.319 44.3636C294.319 43.7718 294.223 43.2734 294.031 42.8686C293.842 42.4614 293.581 42.1536 293.25 41.9453C292.921 41.7346 292.548 41.6293 292.131 41.6293C291.712 41.6293 291.338 41.7346 291.009 41.9453C290.68 42.1536 290.42 42.4614 290.228 42.8686C290.039 43.2734 289.944 43.7718 289.944 44.3636C289.944 44.9555 290.039 45.455 290.228 45.8622C290.42 46.267 290.68 46.5748 291.009 46.7855C291.338 46.9938 291.712 47.098 292.131 47.098C292.548 47.098 292.921 46.9938 293.25 46.7855C293.581 46.5748 293.842 46.267 294.031 45.8622C294.223 45.455 294.319 44.9555 294.319 44.3636ZM303.144 40.7273V48H302.135L298.438 42.6662H298.371V48H297.274V40.7273H298.289L301.99 46.0682H302.057V40.7273H303.144ZM309.921 40.7273H311.022V45.5107C311.022 46.0196 310.902 46.4706 310.663 46.8636C310.424 47.2543 310.088 47.562 309.655 47.7869C309.222 48.0095 308.714 48.1207 308.131 48.1207C307.551 48.1207 307.045 48.0095 306.612 47.7869C306.178 47.562 305.842 47.2543 305.603 46.8636C305.364 46.4706 305.244 46.0196 305.244 45.5107V40.7273H306.342V45.4219C306.342 45.7509 306.414 46.0433 306.558 46.299C306.705 46.5547 306.912 46.7559 307.18 46.9027C307.447 47.0471 307.764 47.1193 308.131 47.1193C308.501 47.1193 308.819 47.0471 309.087 46.9027C309.357 46.7559 309.563 46.5547 309.705 46.299C309.849 46.0433 309.921 45.7509 309.921 45.4219V40.7273ZM317.084 42.6378C317.046 42.3016 316.89 42.0412 316.615 41.8565C316.341 41.6695 315.995 41.576 315.578 41.576C315.28 41.576 315.022 41.6233 314.804 41.718C314.586 41.8104 314.417 41.9382 314.296 42.1016C314.178 42.2625 314.119 42.446 314.119 42.652C314.119 42.8248 314.159 42.974 314.24 43.0994C314.322 43.2249 314.43 43.3303 314.563 43.4155C314.698 43.4983 314.842 43.5682 314.996 43.625C315.15 43.6795 315.298 43.7244 315.44 43.7599L316.15 43.9446C316.382 44.0014 316.62 44.0784 316.864 44.1754C317.108 44.2725 317.334 44.4003 317.542 44.5589C317.75 44.7176 317.919 44.9141 318.046 45.1484C318.177 45.3828 318.242 45.6634 318.242 45.9901C318.242 46.402 318.135 46.7678 317.922 47.0874C317.711 47.407 317.405 47.6591 317.002 47.8438C316.602 48.0284 316.118 48.1207 315.55 48.1207C315.005 48.1207 314.534 48.0343 314.137 47.8615C313.739 47.6887 313.427 47.4437 313.203 47.1264C312.978 46.8068 312.853 46.428 312.83 45.9901H313.931C313.952 46.2528 314.037 46.4718 314.186 46.647C314.338 46.8198 314.531 46.9489 314.765 47.0341C315.002 47.117 315.261 47.1584 315.543 47.1584C315.853 47.1584 316.129 47.1098 316.37 47.0128C316.614 46.9134 316.806 46.776 316.945 46.6009C317.085 46.4233 317.155 46.2161 317.155 45.9794C317.155 45.764 317.093 45.5876 316.97 45.4503C316.85 45.313 316.685 45.1993 316.477 45.1094C316.271 45.0194 316.038 44.9401 315.777 44.8714L314.918 44.6371C314.335 44.4785 313.874 44.2453 313.533 43.9375C313.194 43.6297 313.025 43.2225 313.025 42.7159C313.025 42.2969 313.139 41.9311 313.366 41.6186C313.593 41.3061 313.901 41.0634 314.289 40.8906C314.677 40.7154 315.115 40.6278 315.603 40.6278C316.096 40.6278 316.53 40.7143 316.906 40.8871C317.285 41.0599 317.584 41.2978 317.801 41.6009C318.019 41.9015 318.133 42.2472 318.142 42.6378H317.084Z" fill="white" fill-opacity="0.8"/>
<path d="M272.608 64V56.7273H275.2C275.763 56.7273 276.231 56.8243 276.603 57.0185C276.977 57.2126 277.256 57.4813 277.441 57.8246C277.625 58.1655 277.718 58.5597 277.718 59.0071C277.718 59.4522 277.624 59.844 277.437 60.1825C277.252 60.5187 276.973 60.7803 276.599 60.9673C276.227 61.1544 275.76 61.2479 275.196 61.2479H273.233V60.3033H275.097C275.452 60.3033 275.741 60.2524 275.963 60.1506C276.188 60.0488 276.353 59.9008 276.457 59.7067C276.561 59.5125 276.613 59.2794 276.613 59.0071C276.613 58.7325 276.56 58.4946 276.453 58.2933C276.349 58.0921 276.185 57.9382 275.96 57.8317C275.737 57.7228 275.445 57.6683 275.083 57.6683H273.705V64H272.608ZM276.198 60.7188L277.995 64H276.745L274.983 60.7188H276.198ZM279.553 64V56.7273H282.145C282.711 56.7273 283.18 56.8303 283.551 57.0362C283.923 57.2422 284.201 57.5239 284.386 57.8814C284.571 58.2365 284.663 58.6366 284.663 59.0817C284.663 59.5291 284.569 59.9316 284.382 60.2891C284.198 60.6442 283.918 60.9259 283.544 61.1342C283.173 61.3402 282.705 61.4432 282.142 61.4432H280.359V60.5128H282.042C282.4 60.5128 282.69 60.4512 282.912 60.3281C283.135 60.2027 283.298 60.0322 283.402 59.8168C283.507 59.6013 283.559 59.3563 283.559 59.0817C283.559 58.8071 283.507 58.5632 283.402 58.3501C283.298 58.1371 283.134 57.9702 282.909 57.8494C282.686 57.7287 282.393 57.6683 282.028 57.6683H280.65V64H279.553ZM288.751 64.0994C288.305 64.0994 287.905 64.0142 287.55 63.8438C287.198 63.6709 286.916 63.4342 286.705 63.1335C286.494 62.8329 286.382 62.4896 286.368 62.1037H287.433C287.459 62.4162 287.598 62.6731 287.849 62.8743C288.099 63.0755 288.4 63.1761 288.751 63.1761C289.03 63.1761 289.277 63.1122 289.493 62.9844C289.711 62.8542 289.881 62.6754 290.004 62.4482C290.13 62.2209 290.192 61.9616 290.192 61.6705C290.192 61.3745 290.128 61.1106 290.001 60.8786C289.873 60.6465 289.696 60.4643 289.471 60.3317C289.249 60.1991 288.993 60.1316 288.704 60.1293C288.484 60.1293 288.263 60.1671 288.04 60.2429C287.818 60.3187 287.638 60.4181 287.501 60.5412L286.496 60.392L286.904 56.7273H290.903V57.6683H287.817L287.586 59.7031H287.628C287.77 59.5658 287.959 59.451 288.193 59.3587C288.43 59.2663 288.683 59.2202 288.953 59.2202C289.396 59.2202 289.79 59.3255 290.135 59.5362C290.483 59.7469 290.757 60.0346 290.956 60.3991C291.157 60.7614 291.256 61.178 291.254 61.6491C291.256 62.1203 291.15 62.5405 290.934 62.9098C290.721 63.2791 290.425 63.5703 290.047 63.7834C289.67 63.9941 289.238 64.0994 288.751 64.0994ZM295.583 64.1207C295.022 64.1184 294.543 63.9704 294.145 63.6768C293.747 63.3833 293.443 62.956 293.232 62.3949C293.022 61.8338 292.916 61.1579 292.916 60.3672C292.916 59.5788 293.022 58.9053 293.232 58.3466C293.445 57.7879 293.751 57.3617 294.148 57.0682C294.549 56.7746 295.027 56.6278 295.583 56.6278C296.139 56.6278 296.616 56.7758 297.014 57.0717C297.412 57.3653 297.716 57.7914 297.927 58.3501C298.14 58.9065 298.246 59.5788 298.246 60.3672C298.246 61.1603 298.141 61.8374 297.93 62.3984C297.72 62.9571 297.415 63.3845 297.018 63.6804C296.62 63.974 296.142 64.1207 295.583 64.1207ZM295.583 63.1726C296.076 63.1726 296.46 62.9323 296.737 62.4517C297.017 61.9711 297.156 61.2763 297.156 60.3672C297.156 59.7635 297.092 59.2533 296.964 58.8366C296.839 58.4176 296.658 58.1004 296.421 57.8849C296.187 57.6671 295.907 57.5582 295.583 57.5582C295.093 57.5582 294.708 57.7997 294.429 58.2827C294.15 58.7656 294.009 59.4605 294.006 60.3672C294.006 60.9732 294.069 61.4858 294.195 61.9048C294.322 62.3215 294.504 62.6375 294.738 62.853C294.972 63.0661 295.254 63.1726 295.583 63.1726ZM300.456 64.0675C300.262 64.0675 300.095 63.9988 299.956 63.8615C299.816 63.7218 299.746 63.5537 299.746 63.3572C299.746 63.1631 299.816 62.9974 299.956 62.8601C300.095 62.7204 300.262 62.6506 300.456 62.6506C300.65 62.6506 300.817 62.7204 300.957 62.8601C301.097 62.9974 301.167 63.1631 301.167 63.3572C301.167 63.4875 301.133 63.607 301.067 63.7159C301.003 63.8224 300.918 63.9077 300.811 63.9716C300.705 64.0355 300.587 64.0675 300.456 64.0675ZM305.343 64.1207C304.782 64.1184 304.302 63.9704 303.905 63.6768C303.507 63.3833 303.203 62.956 302.992 62.3949C302.781 61.8338 302.676 61.1579 302.676 60.3672C302.676 59.5788 302.781 58.9053 302.992 58.3466C303.205 57.7879 303.51 57.3617 303.908 57.0682C304.308 56.7746 304.787 56.6278 305.343 56.6278C305.899 56.6278 306.376 56.7758 306.774 57.0717C307.172 57.3653 307.476 57.7914 307.687 58.3501C307.9 58.9065 308.006 59.5788 308.006 60.3672C308.006 61.1603 307.901 61.8374 307.69 62.3984C307.479 62.9571 307.175 63.3845 306.778 63.6804C306.38 63.974 305.902 64.1207 305.343 64.1207ZM305.343 63.1726C305.835 63.1726 306.22 62.9323 306.497 62.4517C306.776 61.9711 306.916 61.2763 306.916 60.3672C306.916 59.7635 306.852 59.2533 306.724 58.8366C306.599 58.4176 306.418 58.1004 306.181 57.8849C305.947 57.6671 305.667 57.5582 305.343 57.5582C304.853 57.5582 304.468 57.7997 304.189 58.2827C303.909 58.7656 303.769 59.4605 303.766 60.3672C303.766 60.9732 303.829 61.4858 303.954 61.9048C304.082 62.3215 304.263 62.6375 304.498 62.853C304.732 63.0661 305.014 63.1726 305.343 63.1726ZM312.298 64.1207C311.737 64.1184 311.257 63.9704 310.86 63.6768C310.462 63.3833 310.158 62.956 309.947 62.3949C309.736 61.8338 309.631 61.1579 309.631 60.3672C309.631 59.5788 309.736 58.9053 309.947 58.3466C310.16 57.7879 310.466 57.3617 310.863 57.0682C311.263 56.7746 311.742 56.6278 312.298 56.6278C312.854 56.6278 313.331 56.7758 313.729 57.0717C314.127 57.3653 314.431 57.7914 314.642 58.3501C314.855 58.9065 314.961 59.5788 314.961 60.3672C314.961 61.1603 314.856 61.8374 314.645 62.3984C314.435 62.9571 314.13 63.3845 313.733 63.6804C313.335 63.974 312.857 64.1207 312.298 64.1207ZM312.298 63.1726C312.79 63.1726 313.175 62.9323 313.452 62.4517C313.731 61.9711 313.871 61.2763 313.871 60.3672C313.871 59.7635 313.807 59.2533 313.679 58.8366C313.554 58.4176 313.373 58.1004 313.136 57.8849C312.902 57.6671 312.622 57.5582 312.298 57.5582C311.808 57.5582 311.423 57.7997 311.144 58.2827C310.864 58.7656 310.724 59.4605 310.721 60.3672C310.721 60.9732 310.784 61.4858 310.909 61.9048C311.037 62.3215 311.218 62.6375 311.453 62.853C311.687 63.0661 311.969 63.1726 312.298 63.1726ZM319.253 64.1207C318.692 64.1184 318.213 63.9704 317.815 63.6768C317.417 63.3833 317.113 62.956 316.902 62.3949C316.691 61.8338 316.586 61.1579 316.586 60.3672C316.586 59.5788 316.691 58.9053 316.902 58.3466C317.115 57.7879 317.421 57.3617 317.818 57.0682C318.218 56.7746 318.697 56.6278 319.253 56.6278C319.809 56.6278 320.286 56.7758 320.684 57.0717C321.082 57.3653 321.386 57.7914 321.597 58.3501C321.81 58.9065 321.916 59.5788 321.916 60.3672C321.916 61.1603 321.811 61.8374 321.6 62.3984C321.39 62.9571 321.085 63.3845 320.688 63.6804C320.29 63.974 319.812 64.1207 319.253 64.1207ZM319.253 63.1726C319.745 63.1726 320.13 62.9323 320.407 62.4517C320.686 61.9711 320.826 61.2763 320.826 60.3672C320.826 59.7635 320.762 59.2533 320.634 58.8366C320.509 58.4176 320.328 58.1004 320.091 57.8849C319.857 57.6671 319.577 57.5582 319.253 57.5582C318.763 57.5582 318.378 57.7997 318.099 58.2827C317.82 58.7656 317.679 59.4605 317.676 60.3672C317.676 60.9732 317.739 61.4858 317.865 61.9048C317.992 62.3215 318.173 62.6375 318.408 62.853C318.642 63.0661 318.924 63.1726 319.253 63.1726ZM325.2 60.8182L325.267 59.3196L324.003 60.1328L323.616 59.4581L324.958 58.7727L323.616 58.0874L324.003 57.4126L325.267 58.2259L325.2 56.7273H325.97L325.903 58.2259L327.167 57.4126L327.554 58.0874L326.212 58.7727L327.554 59.4581L327.167 60.1328L325.903 59.3196L325.97 60.8182H325.2Z" fill="white" fill-opacity="0.8"/>
</svg>
